<svg width="52" height="46" viewBox="0 0 52 46" fill="none" xmlns="http://www.w3.org/2000/svg">
<path d="M17.0346 18.4824H0.468129C0.0279981 18.4824 -0.16918 19.0334 0.175882 19.3054L12.246 28.8634L5.17577 44.1715C4.92929 44.705 5.41872 45.2804 5.99265 45.1304L17.0065 42.2432L22.5099 30.3314L17.0346 18.4824Z" fill="url(#paint0_linear)"/>
<path d="M51.2909 18.4822H34.7173L26.302 0.269374C26.1365 -0.0897915 25.6189 -0.0897915 25.4534 0.269374L19.605 12.9378L32.9216 41.7618L45.7699 45.1302C46.3403 45.2802 46.8297 44.7048 46.5868 44.1713L39.5165 28.8632L51.5866 19.3052C51.9247 19.0332 51.731 18.4822 51.2909 18.4822Z" fill="white"/>
<defs>
<linearGradient id="paint0_linear" x1="4.94771" y1="32.2104" x2="20.0562" y2="24.5825" gradientUnits="userSpaceOnUse">
<stop stop-color="#1E5AF4"/>
<stop offset="1" stop-color="#D63BF5"/>
</linearGradient>
</defs>
</svg>
