<svg width="37" height="43" viewBox="0 0 37 43" fill="none" xmlns="http://www.w3.org/2000/svg">
<path d="M23.2122 35.2456C23.882 32.8359 23.8512 26.184 23.8358 24.8675C23.8358 24.752 23.9436 24.675 24.0514 24.7058L39.7341 29.533C40.3885 29.7332 41.0429 29.2482 41.0429 28.563V26.3457C41.0429 25.9838 40.8504 25.6451 40.5271 25.468L23.7127 15.906C23.7127 15.906 23.7127 7.36016 23.7127 5.42774C23.7127 3.49531 21.7186 0 20.533 0C19.3474 0 17.3534 3.49531 17.3534 5.42774C17.3534 7.36016 17.3534 15.906 17.3534 15.906L0.515827 25.4757C0.200172 25.6528 0 25.9915 0 26.3534V28.5707C0 29.2559 0.662107 29.7409 1.30882 29.5407L16.9915 24.7135C17.0993 24.6827 17.2148 24.7597 17.2071 24.8752C17.1917 26.1917 17.1609 32.8436 17.8307 35.2533" fill="white"/>
<path d="M17.8455 35.25L14.0654 38.0678H13.6034C13.0876 38.0678 12.6719 38.4835 12.6719 38.9994V41.4784C12.6719 42.102 13.2801 42.5563 13.8806 42.3715L19.393 40.67C19.393 40.67 20.5787 44.5195 21.6719 40.67L27.1843 42.3715C27.7848 42.5563 28.3931 42.1097 28.3931 41.4784V38.9994C28.3931 38.4835 27.9773 38.0678 27.4615 38.0678H26.9996L23.2194 35.25" fill="url(#paint0_linear_232_16139)"/>
<path d="M11.425 21.3414H10.9554C10.6013 21.3414 10.3164 21.0566 10.3164 20.7024V18.1156C10.3164 17.7614 10.6013 17.4766 10.9554 17.4766H11.425C11.7792 17.4766 12.0641 17.7614 12.0641 18.1156V20.7024C12.0564 21.0566 11.7715 21.3414 11.425 21.3414Z" fill="white"/>
<path d="M30.1047 21.3414H29.6351C29.281 21.3414 28.9961 21.0566 28.9961 20.7024V18.1156C28.9961 17.7614 29.281 17.4766 29.6351 17.4766H30.1047C30.4589 17.4766 30.7437 17.7614 30.7437 18.1156V20.7024C30.7437 21.0566 30.4589 21.3414 30.1047 21.3414Z" fill="white"/>
<defs>
<linearGradient id="paint0_linear_232_16139" x1="16.2321" y1="43.9574" x2="27.1619" y2="34.4959" gradientUnits="userSpaceOnUse">
<stop stop-color="#0059F9"/>
<stop offset="1" stop-color="#E306F8"/>
</linearGradient>
</defs>
</svg>
