<svg width="41" height="31" viewBox="0 0 41 31" fill="none" xmlns="http://www.w3.org/2000/svg">
<g clip-path="url(#clip0)">
<path d="M19.8111 18.2646H16.2359L14.8087 19.8188L13.4239 18.2646H8.93019V22.9984H13.3673L14.7946 21.43L16.1794 22.9984H18.3556V21.4158H19.7545C20.7296 21.4158 21.7046 21.1448 21.7046 19.8331C21.7046 18.507 20.7013 18.2646 19.8111 18.2646ZM12.8021 22.0003H10.0465V21.0593H12.5053V20.0897H10.0465V19.2342H12.8586L14.088 20.6173L12.8021 22.0003ZM17.2392 22.5564L15.5152 20.6315L17.2392 18.7637V22.5564ZM19.8111 20.4462H18.3697V19.2485H19.8252C20.235 19.2485 20.5035 19.4196 20.5035 19.8331C20.5035 20.2323 20.235 20.4462 19.8111 20.4462Z" fill="white"/>
<path d="M25.945 20.789C26.2418 20.6749 26.7363 20.2899 26.7363 19.5342C26.7363 18.9924 26.5102 18.693 26.157 18.4791C25.7896 18.2795 25.3798 18.251 24.8145 18.251H22.2285V22.9848H23.359V21.2595H24.5602C24.97 21.2595 25.2243 21.3023 25.3798 21.4734C25.5917 21.6872 25.5635 22.115 25.5635 22.4002V22.9848H26.6939V22.0437C26.6939 21.6302 26.6657 21.4163 26.5102 21.1739C26.3972 21.0456 26.1994 20.8888 25.945 20.789ZM25.2667 20.2044C25.1113 20.2899 24.9276 20.3042 24.7156 20.3042H23.359V19.2491H24.7439C24.9417 19.2491 25.1395 19.2491 25.2808 19.3346C25.4222 19.4059 25.5069 19.5627 25.5069 19.7624C25.5069 19.962 25.4222 20.1188 25.2667 20.2044Z" fill="white"/>
<path d="M28.4745 19.2342V20.0897H31.0323V21.0593H28.4745V22.0003H31.1029V22.9842H27.3582V18.2646H31.1029V19.2342H28.4745Z" fill="white"/>
<path d="M34.3952 21.8583C34.4658 21.7871 34.5223 21.673 34.5223 21.5447C34.5223 21.4021 34.4658 21.3023 34.381 21.231C34.2962 21.1597 34.1691 21.1312 33.9854 21.1312C32.9397 21.1027 31.6255 21.1597 31.6255 19.6626C31.6255 18.9782 32.0494 18.251 33.2223 18.251H35.4691V19.2633H33.4201C33.2223 19.2633 33.081 19.2633 32.9679 19.3489C32.8408 19.4202 32.7984 19.5342 32.7984 19.6911C32.7984 19.8622 32.8973 19.9905 33.0386 20.0475C33.1516 20.0903 33.2788 20.1046 33.4766 20.1046L34.0843 20.1188C34.6919 20.1331 35.1158 20.2329 35.3561 20.5038C35.568 20.7319 35.6952 21.0171 35.6952 21.5019C35.6952 22.5142 35.0593 22.999 33.9288 22.999H31.7527V21.9867H33.9288C34.1549 21.9724 34.3104 21.9439 34.3952 21.8583Z" fill="white"/>
<path d="M10.2307 10.123L8.87412 13.3312L7.41863 10.123H5.5816V14.6002L3.68804 10.123H2.02058L0.0139771 14.8568H1.22924L1.66731 13.8017H3.99892L4.42285 14.8568H6.69795V11.1497L8.32301 14.8568H9.31219L10.9373 11.1497V14.8568H12.0819V10.123H10.2307ZM2.06297 12.8036L2.82605 10.9215L3.58912 12.8036H2.06297Z" fill="white"/>
<path d="M14.0461 11.1069V11.9624H16.6039V12.9319H14.0461V13.873H16.6604V14.8568H12.9298V10.123H16.6604V11.1069H14.0461Z" fill="white"/>
<path d="M21.1541 12.6614C21.4509 12.5474 21.9455 12.1481 21.9455 11.4067C21.9455 10.8791 21.7335 10.5654 21.3802 10.3658C21.0128 10.152 20.603 10.1377 20.0237 10.1377H17.4518V14.8715H18.5682V13.132H19.7693C20.165 13.132 20.4193 13.1605 20.5889 13.3316C20.7867 13.5597 20.7585 13.9732 20.7585 14.2584V14.8572H21.889V13.9304C21.889 13.5027 21.8607 13.3031 21.7052 13.0607C21.6063 12.9181 21.3944 12.747 21.1541 12.6614ZM20.4758 12.0626C20.3204 12.1624 20.1367 12.1624 19.9247 12.1624H18.5682V11.1073H19.953C20.1508 11.1073 20.3487 11.1215 20.49 11.1928C20.6313 11.2641 20.7302 11.4067 20.7302 11.6063C20.7019 11.8202 20.6172 11.977 20.4758 12.0626Z" fill="white"/>
<path d="M23.74 10.123H22.5954V14.8568H23.74V10.123Z" fill="white"/>
<path d="M35.8369 10.123V13.4167L33.8726 10.123H32.1628V14.6002L30.2692 10.123H28.5876L27.005 13.8445H26.4963C26.1995 13.8445 25.8886 13.7874 25.719 13.6021C25.5071 13.3597 25.4082 13.0032 25.4082 12.4899C25.4082 11.9909 25.5353 11.6202 25.7332 11.4206C25.9593 11.2067 26.1854 11.1354 26.5952 11.1354H27.655V10.123H26.5669C25.7897 10.123 25.2245 10.2941 24.8712 10.6791C24.3907 11.1782 24.2635 11.8198 24.2635 12.5327C24.2635 13.3882 24.4755 13.93 24.8571 14.3435C25.2527 14.7428 25.931 14.8711 26.4821 14.8711H27.7963L28.2202 13.816H30.5519L30.9899 14.8711H33.265V11.3065L35.3847 14.8568H36.9673V10.123H35.8369ZM28.63 12.8036L29.4072 10.9215L30.1844 12.8036H28.63Z" fill="white"/>
<path d="M36.3732 17.7089V17.3239H33.3068C32.8122 17.3239 32.247 17.4522 31.9644 17.7089V17.3239H26.4957V17.7089C26.0576 17.3952 25.3228 17.3239 24.9836 17.3239H21.3802V17.7089C21.0411 17.3667 20.2639 17.3239 19.7976 17.3239H15.7561L14.8376 18.3363L13.9756 17.3239H7.9275V23.9255H13.8484L14.7952 22.8989L15.6854 23.9255H19.3312V22.3714H19.6845C20.165 22.3714 20.7443 22.3571 21.2389 22.1432V23.9255H24.2488V22.2003H24.3901C24.5738 22.2003 24.6021 22.2003 24.6021 22.3999V23.9255H33.7731C34.3525 23.9255 34.9601 23.783 35.2993 23.4978V23.9255H38.1961C38.8038 23.9255 39.3973 23.84 39.8353 23.6261V30.7125H0V15.784H1.90769L2.33162 14.7289H3.29253L3.71646 15.784H7.47531V14.9855L7.81445 15.7983H9.76453L10.1037 14.9855V15.7983H19.4584V14.073H19.6421C19.7693 14.073 19.8117 14.0873 19.8117 14.3011V15.7983H24.6445V15.399C25.0402 15.6129 25.6478 15.7983 26.4391 15.7983H28.474L28.9121 14.7431H29.873L30.2969 15.7983H34.2253V14.8002L34.8188 15.7983H37.9559V9.18237H34.8471V9.96658L34.409 9.18237H31.2154V9.96658L30.8197 9.18237H26.5098C25.7891 9.18237 25.1532 9.28218 24.6445 9.56735V9.18237H21.6628V9.56735C21.3378 9.28218 20.8998 9.18237 20.4052 9.18237H9.55257L8.81775 10.8791L8.06881 9.18237H4.6491V9.96658L4.26757 9.18237H1.35658L0 12.3192V0.641602H39.8353V17.3239H37.7581C37.1504 17.3239 36.6841 17.4665 36.3732 17.7089Z" fill="white"/>
<path d="M40.076 21.5019C40.076 21.8583 39.9912 22.1578 39.8358 22.3859C39.5673 22.7851 39.0303 22.9848 38.3096 22.9848H36.1476V21.9724H38.2955C38.5074 21.9724 38.6629 21.9439 38.7477 21.8583C38.8183 21.7871 38.8749 21.673 38.8749 21.5447C38.8749 21.4021 38.8183 21.3023 38.7335 21.231C38.6488 21.1597 38.5357 21.1312 38.3379 21.1312C37.2922 21.1027 35.978 21.1597 35.978 19.6626C35.978 18.9782 36.4019 18.251 37.5889 18.251H39.8216V19.2491H37.7868C37.5889 19.2491 37.4476 19.2633 37.3346 19.3346C37.2215 19.4059 37.165 19.52 37.165 19.6768C37.165 19.8479 37.2639 19.9762 37.4052 20.0333C37.5183 20.0761 37.6455 20.0903 37.8292 20.0903L38.4368 20.1046C39.0444 20.1188 39.4542 20.2186 39.7086 20.4895C39.751 20.5181 39.7792 20.5608 39.8075 20.6036C40.0053 20.8317 40.076 21.0884 40.076 21.5019Z" fill="white"/>
</g>
<defs>
<clipPath id="clip0">
<rect width="40.0756" height="30.0567" fill="white" transform="translate(0 0.641602)"/>
</clipPath>
</defs>
</svg>
