<svg width="43" height="37" viewBox="0 0 43 37" fill="none" xmlns="http://www.w3.org/2000/svg">
<g clip-path="url(#clip0)">
<path d="M36.5869 18.5839H17.9295C17.4981 18.5839 17.1207 18.2388 17.1207 17.7875V0.796396C17.1207 0.371619 17.4712 -6.10352e-05 17.9295 -6.10352e-05H36.56C36.9913 -6.10352e-05 37.3688 0.34507 37.3688 0.796396V17.814C37.3688 18.2388 37.0183 18.5839 36.5869 18.5839Z" fill="#326EFF"/>
<path d="M33.6751 7.59271H20.3561V8.8405H33.6751V7.59271Z" fill="white"/>
<path d="M30.3588 9.74298H20.3561V10.9908H30.3588V9.74298Z" fill="white"/>
<path d="M30.3588 14.0437H20.3561V15.2915H30.3588V14.0437Z" fill="white"/>
<path d="M33.6751 11.8933H20.3561V13.1411H33.6751V11.8933Z" fill="white"/>
<path d="M33.6752 3.29181H20.3561V4.53959H33.6752V3.29181Z" fill="white"/>
<path d="M30.3588 5.44202H20.3561V6.6898H30.3588V5.44202Z" fill="white"/>
<path d="M10.1644 9.02664C12.1597 9.02664 13.7772 7.43389 13.7772 5.46913C13.7772 3.50437 12.1597 1.91162 10.1644 1.91162C8.16904 1.91162 6.55151 3.50437 6.55151 5.46913C6.55151 7.43389 8.16904 9.02664 10.1644 9.02664Z" fill="#000087"/>
<path d="M24.535 10.3807V13.4073H15.0446V36.4249H11.4587V24.5842H8.95124V36.4249H5.33839V19.9648V19.2745V18.5577L2.75008 25.009L0 24.0267L5.04181 11.1772C5.23054 10.6993 5.68889 10.3807 6.22812 10.3807H14.5323H24.535Z" fill="#000087"/>
<path d="M10.2184 10.938L11.162 11.8672L10.4071 12.6105L11.162 18.7167L10.1644 19.5663L9.16687 18.7167L9.92179 12.6105L9.16687 11.8672L10.1105 10.938" fill="white"/>
<path d="M35.131 15.2919C34.0525 17.0175 31.7608 17.522 30.0083 16.46C28.2558 15.3981 27.7435 13.1414 28.8219 11.4158C29.9004 9.69013 32.1921 9.18571 33.9446 10.2476C35.6702 11.3361 36.2094 13.5928 35.131 15.2919Z" fill="#FF0082"/>
<path d="M32.0574 11.6282L32.4349 12.7698C32.4349 12.7964 32.4618 12.8229 32.5158 12.8229H33.756C33.8369 12.8229 33.8638 12.9025 33.8099 12.9556L32.8123 13.6725C32.7854 13.699 32.7854 13.7256 32.7854 13.7521L33.1628 14.9202C33.1898 14.9999 33.1089 15.053 33.055 14.9999L32.0574 14.2831C32.0305 14.2565 32.0035 14.2565 31.9765 14.2831L30.979 14.9999C30.925 15.053 30.8442 14.9733 30.8711 14.9202L31.2486 13.7521C31.2486 13.7256 31.2486 13.699 31.2216 13.6725L30.224 12.9556C30.1701 12.9025 30.1971 12.8229 30.278 12.8229H31.5182C31.5452 12.8229 31.5721 12.7964 31.5991 12.7698L31.9765 11.6282C31.9226 11.5486 32.0305 11.5486 32.0574 11.6282Z" fill="white"/>
<path d="M24.5351 28.115C26.2326 28.115 27.6087 26.7599 27.6087 25.0884C27.6087 23.4169 26.2326 22.0619 24.5351 22.0619C22.8376 22.0619 21.4615 23.4169 21.4615 25.0884C21.4615 26.7599 22.8376 28.115 24.5351 28.115Z" fill="#5F96FF"/>
<path d="M29.9543 36.3983H19.1157V32.416C19.1157 30.7965 20.4638 29.4691 22.1085 29.4691H26.9615C28.6062 29.4691 29.9543 30.7965 29.9543 32.416V36.3983Z" fill="#5F96FF"/>
<path d="M37.4499 28.115C39.1474 28.115 40.5235 26.7599 40.5235 25.0884C40.5235 23.4169 39.1474 22.0619 37.4499 22.0619C35.7524 22.0619 34.3763 23.4169 34.3763 25.0884C34.3763 26.7599 35.7524 28.115 37.4499 28.115Z" fill="#5F96FF"/>
<path d="M42.8691 36.3983H32.0576V32.416C32.0576 30.7965 33.4056 29.4691 35.0503 29.4691H39.9034C41.548 29.4691 42.8961 30.7965 42.8961 32.416V36.3983H42.8691Z" fill="#5F96FF"/>
</g>
<defs>
<clipPath id="clip0">
<rect width="42.8689" height="36.3981" fill="white"/>
</clipPath>
</defs>
</svg>
