<svg width="67" height="18" viewBox="0 0 67 18" fill="none" xmlns="http://www.w3.org/2000/svg">
<g clip-path="url(#clip0)">
<path d="M7.01298 4.11133V13.8484C5.11217 13.091 3.76195 11.1977 3.76195 8.97985C3.76195 6.76197 5.11217 4.86865 7.01298 4.11133Z" fill="white"/>
<path d="M13.908 8.97985C13.908 11.2113 12.5578 13.1046 10.6439 13.8484V4.11133C12.5578 4.85513 13.8949 6.76197 13.908 8.97985Z" fill="white"/>
<path d="M12.9255 0H8.80923C3.98513 0 0 3.70548 0 9.07437C0 13.9835 3.98513 18.0135 8.80923 18H12.9255C17.6971 18.027 22.0624 13.9835 22.0624 9.07437C22.0624 3.70548 17.6971 0 12.9255 0ZM8.83545 17.2156C4.41773 17.2156 0.838975 13.5237 0.838975 8.97971C0.838975 4.43576 4.41773 0.743801 8.83545 0.743801C13.2532 0.743801 16.8319 4.43576 16.8319 8.97971C16.8319 13.5372 13.2532 17.2156 8.83545 17.2156Z" fill="white"/>
<path d="M66.8554 14.213C66.8292 14.3212 66.7767 14.4699 66.6981 14.5781C66.6063 14.7133 66.4228 14.8351 66.2131 14.8621C65.9771 14.8892 65.7542 14.8892 65.5576 14.8756C65.4003 14.8486 65.2561 14.7945 65.2561 14.5916V11.9275C65.2561 11.657 65.4003 11.6435 65.5969 11.6435H65.728V11.4947C65.4659 11.4947 65.2168 11.5082 64.9677 11.5082C64.7055 11.5082 64.4434 11.4947 64.1812 11.4947V11.6435H64.2467C64.4302 11.6435 64.6269 11.6705 64.6269 11.941V14.5916C64.6269 14.9162 64.4302 14.9432 64.2467 14.9432H64.1812V15.092C64.6269 15.092 65.0595 15.0785 65.5052 15.0785C65.9378 15.0785 66.3835 15.092 66.8292 15.092C66.8947 14.7945 66.9603 14.5105 67.0127 14.213H66.8554ZM63.9583 14.9297C63.801 14.9297 63.683 14.8621 63.6306 14.7269C63.565 14.5646 63.5126 14.3753 63.4471 14.1994L62.5294 11.5082C62.5163 11.4677 62.5032 11.4271 62.4901 11.373C62.477 11.3595 62.4639 11.3595 62.4508 11.3595C62.4377 11.3595 62.4246 11.3595 62.4115 11.373C62.3197 11.4271 62.11 11.5353 61.9526 11.5894C61.9264 11.7787 61.8347 12.0357 61.7691 12.225L60.9695 14.5916C60.8908 14.808 60.7335 14.9297 60.5369 14.9297H60.5107V15.0785C60.6942 15.065 60.8646 15.065 61.0481 15.065C61.2448 15.065 61.4545 15.0785 61.6511 15.0785V14.9297H61.5987C61.4414 14.9297 61.2185 14.9027 61.2185 14.7539C61.2185 14.6592 61.2841 14.524 61.3234 14.3482L61.4807 13.8073H62.6212L62.8178 14.4023C62.8703 14.5646 62.9227 14.6998 62.9227 14.7674C62.9227 14.9027 62.7261 14.9162 62.6081 14.9162H62.5557V15.065C62.8178 15.0514 63.0669 15.0514 63.3029 15.0514C63.5388 15.0514 63.7748 15.065 63.9976 15.065V14.9162H63.9583V14.9297ZM61.5856 13.5233L62.0444 12.0627H62.0575L62.5163 13.5233H61.5856ZM59.9076 11.5082C59.6717 11.5082 59.4488 11.4947 59.2129 11.4947V11.6435H59.3177C59.4619 11.6435 59.7503 11.7111 59.7503 12.1303V14.0642L59.7372 14.0777L57.5087 11.4947C57.3514 11.4947 57.2203 11.5082 57.063 11.5082C56.8664 11.5082 56.6828 11.4947 56.4862 11.4947V11.6435H56.5517C56.7746 11.6435 57.0106 11.8193 57.0106 12.1033V14.2671C57.0106 14.6728 56.9057 14.9162 56.5649 14.9162H56.4993V15.065C56.7222 15.065 56.9581 15.0514 57.181 15.0514C57.3907 15.0514 57.6136 15.065 57.8233 15.065V14.9162H57.7316C57.3514 14.9162 57.2596 14.7674 57.2596 14.3076V12.2115L59.8421 15.1731H60.0387C60.0125 15.0109 60.0125 14.8351 60.0125 14.6593V12.3061C60.0125 11.6976 60.2485 11.657 60.4582 11.657H60.5369V11.4947C60.314 11.4947 60.1174 11.5082 59.9076 11.5082ZM54.4543 11.4136C53.4187 11.4136 52.6059 12.2385 52.6059 13.3069C52.6059 14.4158 53.4187 15.1596 54.4805 15.1596C55.5424 15.1596 56.3682 14.3753 56.3682 13.1852C56.3682 12.0898 55.5161 11.4136 54.4543 11.4136ZM54.533 14.9432C53.7202 14.9432 53.3138 14.0642 53.3138 13.1446C53.3138 12.4549 53.576 11.657 54.4543 11.657C55.2802 11.657 55.6734 12.5631 55.6734 13.3204C55.6734 14.0507 55.503 14.9432 54.533 14.9432ZM52.3962 11.6435H52.4617V11.4947C52.2258 11.4947 51.9243 11.5082 51.6752 11.5082C51.4261 11.5082 51.1246 11.4947 50.9411 11.4947V11.6435H51.0066C51.1902 11.6435 51.3737 11.6705 51.3737 11.941V14.6457C51.3737 14.9162 51.1902 14.9432 51.0066 14.9432H50.9411V15.092C51.1377 15.092 51.4261 15.0785 51.6752 15.0785C51.9243 15.0785 52.2258 15.092 52.4617 15.092V14.9432H52.3962C52.2127 14.9432 52.0291 14.9162 52.0291 14.6457V11.941C52.016 11.6705 52.2127 11.6435 52.3962 11.6435ZM50.6265 11.3324C50.6134 11.4812 50.4954 11.4947 50.3512 11.4947H47.7687C47.6376 11.4947 47.5066 11.4947 47.4672 11.346H47.3492C47.3492 11.4947 47.3361 11.6435 47.323 11.7787C47.3099 11.9275 47.2837 12.0762 47.2575 12.2115H47.4017C47.4803 11.8328 47.4934 11.7381 47.8605 11.7381H48.6732V14.4834C48.6732 14.8892 48.5291 14.9162 48.2538 14.9162H48.162V15.065C48.3586 15.065 48.7126 15.0514 49.001 15.0514C49.2763 15.0514 49.6171 15.065 49.8137 15.065V14.9162H49.722C49.486 14.9162 49.3025 14.8756 49.3025 14.4699V11.7517H50.1152C50.4561 11.7517 50.4823 12.0627 50.4823 12.252L50.6265 12.1979C50.6265 12.0627 50.6265 11.9275 50.6396 11.7787C50.6527 11.6435 50.6789 11.4947 50.692 11.3595L50.6265 11.3324ZM47.6376 14.9297C47.4672 14.9297 47.3624 14.8621 47.3099 14.7269C47.2444 14.5646 47.1919 14.3753 47.1264 14.1994L46.2088 11.5082C46.1957 11.4677 46.1825 11.4271 46.1694 11.373C46.1563 11.3595 46.1432 11.3595 46.1301 11.3595C46.117 11.3595 46.1039 11.3595 46.0908 11.373C45.999 11.4271 45.8024 11.5353 45.632 11.5894C45.6057 11.7787 45.514 12.0357 45.4484 12.225L44.6488 14.5916C44.5701 14.808 44.4128 14.9297 44.2162 14.9297H44.1769V15.0785C44.3604 15.065 44.5439 15.065 44.7143 15.065C44.911 15.065 45.1207 15.0785 45.3174 15.0785V14.9297H45.2649C45.0945 14.9297 44.8848 14.9027 44.8848 14.7539C44.8848 14.6592 44.9503 14.524 44.9896 14.3482L45.1469 13.8073H46.2874L46.4841 14.4023C46.5365 14.5646 46.5889 14.6998 46.5889 14.7674C46.5889 14.9027 46.3923 14.9162 46.2743 14.9162H46.2219V15.065C46.4709 15.0514 46.72 15.0514 46.9691 15.0514C47.205 15.0514 47.4279 15.065 47.6639 15.065V14.9162H47.6376V14.9297ZM45.2518 13.5233L45.7106 12.0627H45.7237L46.1825 13.5233H45.2518ZM43.587 11.5082C43.351 11.5082 43.1282 11.4947 42.8922 11.4947V11.6435H42.9971C43.1413 11.6435 43.4297 11.7111 43.4297 12.1303V14.0642L43.4165 14.0777L41.188 11.4947C41.0307 11.4947 40.8865 11.5082 40.7423 11.5082C40.5457 11.5082 40.349 11.4947 40.1655 11.4947V11.6435H40.2311C40.4539 11.6435 40.6899 11.8193 40.6899 12.1033V14.2671C40.6899 14.6728 40.585 14.9162 40.2442 14.9162H40.1786V15.065C40.4015 15.065 40.6374 15.0514 40.8603 15.0514C41.07 15.0514 41.2929 15.065 41.5026 15.065V14.9162H41.424C41.0438 14.9162 40.9521 14.7674 40.9521 14.3076V12.2115L43.5345 15.1731H43.7181C43.6918 15.0109 43.6918 14.8351 43.6918 14.6593V12.3061C43.6918 11.6976 43.9278 11.657 44.1375 11.657H44.2162V11.4947C43.9933 11.4947 43.7836 11.5082 43.587 11.5082ZM39.5363 14.6187L38.6842 13.3069C39.0775 13.1446 39.379 12.8606 39.379 12.4008C39.379 11.6705 38.8153 11.4947 38.1861 11.4947C37.9239 11.4947 37.6748 11.5082 37.3864 11.5082C37.0849 11.5082 36.7703 11.4947 36.613 11.4947V11.6435H36.7048C36.8621 11.6435 37.0587 11.657 37.0587 12.0357V14.6457C37.0587 14.8351 36.8883 14.9162 36.7048 14.9162H36.613V15.065C36.8621 15.065 37.098 15.0514 37.334 15.0514C37.6224 15.0514 37.9108 15.065 38.1992 15.065V14.9162H38.1074C37.8715 14.9162 37.701 14.9027 37.701 14.5105V13.4151H38.0288C38.3565 14.0101 38.6842 14.5646 39.0644 15.0785C39.2217 15.0785 39.379 15.065 39.5363 15.065C39.7067 15.065 39.864 15.0785 40.0213 15.0785V14.9297C39.7723 14.9027 39.6805 14.8351 39.5363 14.6187ZM37.937 13.2257H37.6879V11.6976C37.7535 11.6976 37.819 11.684 37.9763 11.684C38.422 11.684 38.7104 11.9816 38.7104 12.4414C38.6973 13.0364 38.4351 13.2257 37.937 13.2257ZM36.2328 14.2265C36.0755 14.808 35.8133 14.8621 35.2103 14.8621C34.8957 14.8621 34.6073 14.8621 34.6073 14.524V13.3204H35.2103C35.5512 13.3204 35.5774 13.5233 35.6036 13.8343L35.7609 13.8073C35.7478 13.6044 35.7478 13.4151 35.7478 13.2257C35.7478 13.0229 35.7478 12.82 35.7609 12.6172H35.6036C35.5774 12.9012 35.5118 13.0635 35.2103 13.0635H34.6073V11.7111H35.3021C35.8264 11.7111 35.892 11.9816 35.9182 12.3197L36.0624 12.2791C36.0493 12.0492 36.0493 11.7111 36.0493 11.4947C35.7085 11.4947 35.1841 11.5082 34.7646 11.5082C34.3451 11.5082 33.8208 11.4947 33.5193 11.4947V11.6435H33.5848C33.7683 11.6435 33.9519 11.6705 33.9519 11.941V14.6457C33.9519 14.9162 33.7552 14.9432 33.5848 14.9432H33.5193V15.092C33.8077 15.092 34.3976 15.0785 34.8433 15.0785C35.289 15.0785 35.8658 15.092 36.1935 15.092C36.2328 14.8215 36.2984 14.5511 36.3639 14.2671L36.2328 14.2265ZM33.244 11.3324C33.2309 11.4812 33.1129 11.4947 32.9687 11.4947H30.3862C30.2551 11.4947 30.124 11.4947 30.0847 11.346H29.9667C29.9667 11.4947 29.9536 11.6435 29.9405 11.7787C29.9274 11.9275 29.9012 12.0762 29.875 12.2115H30.0192C30.0978 11.8328 30.1109 11.7381 30.478 11.7381H31.2907V14.4834C31.2907 14.8892 31.1465 14.9162 30.8713 14.9162H30.8057V15.065C31.0023 15.065 31.3563 15.0514 31.6578 15.0514C31.9331 15.0514 32.2739 15.065 32.4706 15.065V14.9162H32.3788C32.1428 14.9162 31.9593 14.8756 31.9593 14.4699V11.7517H32.7852C33.1129 11.7517 33.1391 12.0627 33.1522 12.252L33.2964 12.1979C33.2964 12.0627 33.2964 11.9275 33.3095 11.7787C33.3226 11.6435 33.3489 11.4947 33.362 11.3595L33.244 11.3324ZM29.1409 11.5082C28.9049 11.5082 28.6689 11.4947 28.4461 11.4947V11.6435H28.551C28.6952 11.6435 28.9836 11.7111 28.9836 12.1303V14.0642H28.9705L26.7419 11.4947C26.5977 11.4947 26.4404 11.5082 26.2962 11.5082C26.0996 11.5082 25.9161 11.4947 25.7194 11.4947V11.6435H25.785C26.0078 11.6435 26.2438 11.8193 26.2438 12.1033V14.2671C26.2438 14.6728 26.1389 14.9162 25.7981 14.9162H25.7325V15.065C25.9554 15.065 26.1914 15.0514 26.4142 15.0514C26.6371 15.0514 26.8468 15.065 27.0565 15.065V14.9162H26.9779C26.5846 14.9162 26.506 14.7674 26.506 14.3076V12.2115L29.0884 15.1731H29.272C29.2457 15.0109 29.2457 14.8351 29.2457 14.6593V12.3061C29.2457 11.6976 29.4817 11.657 29.6914 11.657H29.7701V11.4947C29.5472 11.4947 29.3375 11.5082 29.1409 11.5082ZM25.4704 11.6435H25.5359V11.4947C25.2999 11.4947 24.9984 11.5082 24.7494 11.5082C24.5003 11.5082 24.1988 11.4947 24.0022 11.4947V11.6435H24.0677C24.2512 11.6435 24.4347 11.6705 24.4347 11.941V14.6457C24.4347 14.9162 24.2381 14.9432 24.0677 14.9432H24.0022V15.092C24.1988 15.092 24.4872 15.0785 24.7363 15.0785C24.9853 15.0785 25.2868 15.092 25.5228 15.092V14.9432H25.4572C25.2737 14.9432 25.0902 14.9162 25.0902 14.6457V11.941C25.1033 11.6705 25.2868 11.6435 25.4704 11.6435ZM65.0333 5.09802C64.522 5.09802 64.0239 5.46316 63.6568 5.7742V2.32567C63.6568 2.24452 63.6437 2.19043 63.5782 2.19043C63.5519 2.19043 63.4733 2.24452 63.3815 2.29862C63.1849 2.40681 62.8047 2.58262 62.4377 2.70433V2.85309C62.7916 2.96128 62.9227 2.9748 62.9227 3.59689V7.66751C62.9227 8.24903 62.8703 8.78998 62.7916 9.35797L62.9883 9.46616L63.2635 9.24978C63.4995 9.35797 63.8666 9.58788 64.5351 9.58788C65.846 9.58788 66.7374 8.3437 66.7374 7.11304C66.7505 6.0582 66.1082 5.09802 65.0333 5.09802ZM64.6138 9.33093C63.9976 9.33093 63.6699 8.72236 63.6699 8.35722V6.0582C63.919 5.84182 64.2074 5.61192 64.5482 5.61192C65.2692 5.61192 66.0164 6.46391 66.0164 7.47818C66.0164 8.33017 65.5969 9.33093 64.6138 9.33093ZM62.0968 9.0875C61.9395 9.0875 61.8347 9.07398 61.8347 8.91169V5.40906C61.8347 5.30087 61.8347 5.23325 61.756 5.23325C61.6642 5.23325 61.153 5.3144 60.3271 5.36849V5.5443C60.6549 5.63896 61.1006 5.74715 61.1006 5.93649V8.47893C60.7073 8.8035 60.3009 9.06045 59.9863 9.06045C59.1867 9.06045 59.1866 8.24903 59.1866 7.96504V5.53078C59.1866 5.32792 59.1867 5.2603 59.0818 5.2603C58.9638 5.2603 58.2297 5.3144 57.902 5.32792V5.50373C58.4132 5.5443 58.4525 5.78772 58.4525 6.03115V8.45189C58.4525 9.24978 58.9638 9.57435 59.4619 9.57435C60.1174 9.57435 60.5369 9.23626 61.0875 8.77646V9.5473L61.1399 9.57435C61.3103 9.52026 62.0706 9.3174 62.4639 9.27683V9.07398C62.3459 9.07398 62.2017 9.0875 62.0968 9.0875ZM57.7447 9.18217C57.4825 9.18217 57.2859 9.18217 57.2859 8.87112V2.32567C57.2859 2.24452 57.2727 2.19043 57.2072 2.19043C57.181 2.19043 57.1023 2.24452 57.0106 2.29862C56.8139 2.40681 56.4338 2.58262 56.0667 2.70433V2.85309C56.4207 2.96128 56.5517 2.9748 56.5517 3.59689V8.87112C56.5517 9.18217 56.3682 9.18217 56.106 9.18217H55.9356V9.42559C56.2765 9.41207 56.6042 9.41207 56.9319 9.41207C57.2596 9.41207 57.5874 9.42559 57.902 9.42559V9.18217H57.7447ZM55.4113 7.62694C55.2277 8.6277 54.4674 9.26331 53.5629 9.26331C52.1471 9.26331 50.8231 7.88389 50.8231 5.97706C50.8231 3.70508 52.3569 2.9748 53.4187 2.9748C54.4543 2.9748 55.2146 3.42108 55.385 4.53002H55.621L55.5292 3.17766C54.8214 2.92071 54.1004 2.67728 53.3663 2.67728C51.5572 2.67728 49.8793 4.07022 49.8793 6.0041C49.8793 8.14084 51.2426 9.56083 53.3925 9.56083C53.9955 9.56083 55.0442 9.30388 55.4244 9.06045L55.6341 7.68104L55.4113 7.62694ZM45.1732 6.03115C45.1732 5.62544 45.5271 5.40906 45.8941 5.40906C46.4841 5.40906 46.7987 5.74715 46.8904 6.3422H47.1002L47.0346 5.38201C46.6807 5.19268 46.2743 5.11154 45.9859 5.11154C44.9765 5.11154 44.557 5.78772 44.557 6.32867C44.557 7.85685 46.5627 7.49171 46.5627 8.61417C46.5627 8.95226 46.3661 9.29035 45.8155 9.29035C45.1469 9.29035 44.7799 8.76293 44.6619 8.14084L44.4915 8.19494L44.5964 9.27683C44.9241 9.46616 45.3567 9.6014 45.7106 9.6014C46.8118 9.6014 47.2968 8.93874 47.2968 8.31665C47.3099 6.802 45.1732 7.14009 45.1732 6.03115ZM43.7443 5.09802C43.1806 5.09802 42.8004 5.70658 42.5645 6.07172H42.5382V5.21973C42.5382 5.12507 42.512 5.09802 42.4596 5.09802C42.3809 5.09802 42.0139 5.34144 41.3322 5.63896V5.7742C41.4764 5.85534 41.8041 5.90944 41.8041 6.19343V8.8576C41.8041 9.16864 41.6206 9.16864 41.3584 9.16864H41.1094V9.41207C41.4371 9.39854 41.8304 9.39854 42.1974 9.39854C42.5907 9.39854 42.984 9.41207 43.4821 9.41207V9.16864H42.9971C42.7349 9.16864 42.5514 9.16864 42.5514 8.8576V6.63972C42.5514 6.07172 43.0626 5.85534 43.2199 5.85534C43.5476 5.85534 43.5476 6.08525 43.8229 6.08525C44.0851 6.08525 44.2555 5.85534 44.2555 5.59839C44.2686 5.2603 43.9671 5.09802 43.7443 5.09802ZM40.8341 8.37075C40.4932 8.72236 40.1 9.00636 39.5887 9.00636C38.8546 9.00636 38.2909 8.26256 38.2385 7.36999C38.2254 7.04543 38.2254 6.91019 38.2385 6.81552H40.821L40.8996 6.76143C40.9127 6.70733 40.9127 6.65324 40.9127 6.58562C40.8996 5.58487 40.1 5.09802 39.3659 5.09802C38.7235 5.09802 37.5044 5.65249 37.5044 7.50523C37.5044 8.1138 37.7928 9.56083 39.261 9.56083C40.0213 9.56083 40.5457 9.07398 40.9652 8.49246L40.8341 8.37075ZM39.3265 5.40906C39.8378 5.40906 40.1262 5.80125 40.1262 6.27458C40.1262 6.38277 40.1 6.518 39.864 6.518H38.2647C38.3827 5.8283 38.7629 5.40906 39.3265 5.40906ZM37.3733 9.18217C37.1111 9.18217 36.9145 9.18217 36.9145 8.87112V6.43686C36.9145 5.69306 36.6392 5.11154 35.8527 5.11154C35.2365 5.11154 34.7908 5.43611 34.2665 5.81477V5.20621C34.2665 5.12507 34.2403 5.11154 34.214 5.11154C33.7683 5.3144 33.4013 5.43611 33.008 5.57135V5.74715C33.4406 5.92296 33.5455 6.01763 33.5455 6.36924V8.87112C33.5455 9.18217 33.362 9.18217 33.0998 9.18217H32.9294V9.42559C33.2571 9.41207 33.5848 9.41207 33.9256 9.41207C34.2534 9.41207 34.5811 9.42559 34.8957 9.42559V9.18217H34.7253C34.4631 9.18217 34.2665 9.18217 34.2665 8.87112V6.07172C34.568 5.86887 35.0399 5.61192 35.3283 5.61192C35.8527 5.61192 36.1673 5.88239 36.1673 6.42334V8.87112C36.1673 9.18217 35.9838 9.18217 35.7216 9.18217H35.5512V9.42559C35.8789 9.41207 36.2066 9.41207 36.5474 9.41207C36.8752 9.41207 37.2029 9.42559 37.5175 9.42559V9.18217H37.3733ZM31.684 2.71785C31.4481 2.71785 31.2383 2.93423 31.2383 3.17766C31.2383 3.42108 31.4481 3.65099 31.684 3.65099C31.9331 3.65099 32.1297 3.43461 32.1297 3.17766C32.1297 2.92071 31.92 2.71785 31.684 2.71785ZM32.5099 9.18217C32.2477 9.18217 32.0511 9.18217 32.0511 8.87112V5.23325C32.0511 5.15211 32.038 5.09802 31.9855 5.09802C31.9331 5.09802 31.8806 5.11154 31.8151 5.15211C31.7758 5.17916 31.2645 5.35497 30.8319 5.4902V5.63896C31.1728 5.8283 31.317 5.88239 31.317 6.30162V8.87112C31.317 9.18217 31.1334 9.18217 30.8713 9.18217H30.7008V9.42559C31.0417 9.41207 31.3694 9.41207 31.6971 9.41207C32.0248 9.41207 32.3526 9.42559 32.6672 9.42559V9.18217H32.5099ZM26.7026 2.82604C26.0209 2.82604 25.4966 2.83957 25.1164 2.83957C24.7625 2.83957 24.3954 2.83957 24.0284 2.82604V3.06947C24.4479 3.08299 24.8673 3.0289 24.8673 3.88089V8.46541C24.8411 9.11455 24.5789 9.12807 24.0284 9.18217V9.42559C24.4479 9.41207 24.8411 9.41207 25.2606 9.41207C25.6932 9.41207 26.1258 9.42559 26.5977 9.42559C29.8488 9.42559 30.3862 7.07247 30.3862 6.12582C30.3731 4.46241 29.0753 2.82604 26.7026 2.82604ZM26.7288 9.12807C26.2831 9.12807 25.7719 9.04693 25.7719 8.31665V3.16413C25.9423 3.15061 26.1127 3.12356 26.4929 3.12356C28.2626 3.12356 29.3637 4.40831 29.3637 6.16639C29.3637 7.58637 28.7083 9.12807 26.7288 9.12807Z" fill="white"/>
</g>
<defs>
<clipPath id="clip0">
<rect width="67" height="18" fill="white"/>
</clipPath>
</defs>
</svg>
