<svg width="40" height="46" viewBox="0 0 40 46" fill="none" xmlns="http://www.w3.org/2000/svg">
<g clip-path="url(#clip0)">
<path d="M9.21087 17.3742C9.27417 17.5634 9.36913 17.7526 9.46409 17.9418C9.78063 18.5724 9.62236 19.3292 9.14756 19.8337L7.91308 21.0634L11.3316 24.4689L12.5661 23.2392C13.0726 22.7346 13.8323 22.6085 14.4653 22.9238C14.8135 23.0815 15.1934 23.2392 15.5732 23.3653C16.2379 23.586 16.6811 24.2482 16.6811 24.9419V26.6762H21.4924V24.9104C21.4924 24.2166 21.9355 23.586 22.6002 23.3337C22.9801 23.2076 23.3599 23.05 23.7081 22.8923C24.3412 22.577 25.1009 22.7346 25.6073 23.2076L26.8418 24.4374L30.2604 21.0319L29.0259 19.8022C28.5194 19.2976 28.3928 18.5409 28.7093 17.9102C28.8676 17.5634 29.0259 17.185 29.1525 16.8066C29.3741 16.1444 30.0388 15.703 30.7352 15.703H32.4761V10.9101H30.7352C30.0388 10.9101 29.4057 10.4687 29.1525 9.80648C29.0259 9.4281 28.8676 9.04971 28.7093 8.70286C28.3928 8.07222 28.5511 7.31545 29.0259 6.81093L30.2604 5.58118L26.8101 2.20725L25.5757 3.437C25.0692 3.94151 24.3095 4.06764 23.6765 3.75232C23.3283 3.59466 22.9484 3.437 22.5686 3.31087C21.9039 3.09015 21.4607 2.42797 21.4607 1.73427V0H16.6494V1.73427C16.6494 2.42797 16.2063 3.05861 15.5415 3.31087C15.1617 3.437 14.7819 3.59466 14.4337 3.75232C13.8006 4.06764 13.0409 3.90998 12.5345 3.437L11.3 2.20725L7.88143 5.61271L9.11591 6.84246C9.62236 7.34698 9.74897 8.10375 9.43244 8.73439C9.27417 9.08124 9.11591 9.45963 8.98929 9.83801C8.76772 10.5002 8.103 10.9416 7.40663 10.9416H5.66569V15.7345H6.74191C7.84977 15.7345 8.79937 16.3652 9.21087 17.3742Z" fill="#000087"/>
<path d="M19.0552 21.3785C23.513 21.3785 27.1268 17.7785 27.1268 13.3378C27.1268 8.89705 23.513 5.29712 19.0552 5.29712C14.5974 5.29712 10.9836 8.89705 10.9836 13.3378C10.9836 17.7785 14.5974 21.3785 19.0552 21.3785Z" fill="#326EFF"/>
<path d="M4.49478 41.2439C4.62139 41.3385 4.71635 41.4647 4.84296 41.5593C5.25446 41.9061 5.38107 42.4737 5.19115 42.9782L4.71635 44.208L8.13491 45.5323L8.60971 44.3026C8.79963 43.798 9.30609 43.4827 9.81254 43.5143C10.0974 43.5143 10.414 43.5143 10.7305 43.4827C11.2686 43.4512 11.775 43.735 11.9966 44.2395L12.5347 45.4377L15.89 43.9872L15.3519 42.789C15.1303 42.316 15.2569 41.7169 15.6368 41.3701C15.8583 41.1493 16.0799 40.9602 16.2698 40.7079C16.618 40.298 17.1878 40.1719 17.6942 40.361L18.9287 40.834L20.2581 37.4286L19.0237 36.9556C18.5172 36.7664 18.2007 36.2619 18.2323 35.7574C18.2323 35.4736 18.2323 35.1582 18.2007 34.8429C18.169 34.3069 18.4539 33.8024 18.9604 33.5816L20.1632 33.0456L18.6755 29.7347L17.4727 30.2708C16.9979 30.4915 16.3964 30.3654 16.0483 29.987C15.8267 29.7663 15.6368 29.5455 15.3835 29.3563C14.972 29.0095 14.8454 28.4419 15.0353 27.9374L15.5101 26.7076L12.0916 25.3833L11.6168 26.6131C11.4269 27.1176 10.9204 27.4329 10.414 27.4014C10.1291 27.4014 9.81254 27.4014 9.49601 27.4329C8.9579 27.4644 8.45145 27.1806 8.22987 26.6761L7.69177 25.4779L4.33651 26.9284L4.87462 28.1266C5.09619 28.5996 4.96958 29.1987 4.58974 29.5455C4.36816 29.7663 4.14659 29.9555 3.95667 30.2077C3.60848 30.6176 3.03872 30.7438 2.53227 30.5546L1.29779 30.0816L0 33.4555L1.23448 33.9285C1.74093 34.1177 2.05747 34.6222 2.02581 35.1267C2.02581 35.4105 2.02581 35.7258 2.05747 36.0411C2.08912 36.5772 1.80424 37.0817 1.29779 37.3024L0.0949601 37.8385L1.55101 41.1809L2.3107 40.8656C3.03872 40.5187 3.89336 40.6764 4.49478 41.2439Z" fill="#326EFF"/>
<path d="M10.0975 40.2352C12.7547 40.2352 14.9088 38.0893 14.9088 35.4423C14.9088 32.7953 12.7547 30.6494 10.0975 30.6494C7.44031 30.6494 5.28622 32.7953 5.28622 35.4423C5.28622 38.0893 7.44031 40.2352 10.0975 40.2352Z" fill="white"/>
<path d="M23.8668 35.6949C23.9302 35.821 23.9618 35.9471 24.0251 36.0732C24.2467 36.5147 24.1517 37.0192 23.8035 37.3661L22.9806 38.1859L25.2912 40.4877L26.1459 39.6364C26.4941 39.2895 27.0005 39.1949 27.412 39.4156C27.6652 39.5418 27.9185 39.6364 28.1717 39.731C28.6148 39.8886 28.9314 40.3301 28.9314 40.8031V41.9697H32.1917V40.8031C32.1917 40.3301 32.4766 39.8886 32.9514 39.731C33.2046 39.6364 33.4578 39.5418 33.711 39.4156C34.1542 39.1949 34.6606 39.2895 35.0088 39.6364L35.8318 40.4562L38.1425 38.1544L37.2879 37.303C36.9397 36.9561 36.8447 36.4516 37.0663 36.0417C37.1929 35.7895 37.2879 35.5372 37.3828 35.2849C37.5411 34.8435 37.9842 34.5282 38.459 34.5282H39.6302V31.3119H38.459C37.9842 31.3119 37.5411 31.0281 37.3828 30.5551C37.2879 30.3029 37.1929 30.0506 37.0663 29.7984C36.8447 29.3569 36.9397 28.8524 37.2879 28.5055L38.1109 27.6857L35.8002 25.3839L34.9455 26.2352C34.5973 26.5821 34.0909 26.6767 33.6794 26.456C33.4262 26.3298 33.1729 26.2352 32.9197 26.1406C32.4766 25.983 32.16 25.5415 32.16 25.0685V23.9019H28.9314V25.0685C28.9314 25.5415 28.6465 25.983 28.1717 26.1406C27.9185 26.2352 27.6652 26.3298 27.412 26.456C26.9689 26.6767 26.4624 26.5821 26.1142 26.2352L25.2912 25.4154L22.9806 27.7172L23.8352 28.5686C24.1834 28.9155 24.2783 29.42 24.0568 29.8299C23.9302 30.0821 23.8352 30.3344 23.7402 30.5867C23.582 31.0281 23.1388 31.3434 22.664 31.3434H21.4928V34.5912H22.2209C22.9489 34.5597 23.582 35.0327 23.8668 35.6949Z" fill="#5F96FF"/>
<path d="M30.5453 37.2398C32.9228 37.2398 34.8502 35.3198 34.8502 32.9514C34.8502 30.5831 32.9228 28.6631 30.5453 28.6631C28.1678 28.6631 26.2405 30.5831 26.2405 32.9514C26.2405 35.3198 28.1678 37.2398 30.5453 37.2398Z" fill="white"/>
<path d="M24.4361 16.68C22.5686 19.644 18.6752 20.5269 15.6998 18.6981C12.7244 16.8377 11.8381 12.9592 13.674 9.99521C15.5415 7.0312 19.4349 6.1483 22.4103 7.97716C25.3857 9.80602 26.272 13.716 24.4361 16.68Z" fill="white"/>
<path d="M19.1818 10.3424L19.8465 12.3289C19.8782 12.392 19.9098 12.4235 19.9731 12.4235L22.0622 12.455C22.1889 12.455 22.2205 12.6127 22.1256 12.6758L20.4479 13.9055C20.4163 13.9371 20.3846 14.0001 20.4163 14.0317L21.0493 16.0182C21.081 16.1443 20.9544 16.2389 20.8594 16.1443L19.1501 14.9146C19.1185 14.883 19.0552 14.883 18.9919 14.9146L17.2826 16.1443C17.1876 16.2074 17.061 16.1128 17.0927 16.0182L17.7257 14.0317C17.7574 13.9686 17.7257 13.9371 17.6941 13.9055L16.0165 12.6758C15.9215 12.6127 15.9532 12.455 16.0798 12.455L18.1689 12.4235C18.2322 12.4235 18.2638 12.392 18.2955 12.3289L18.9602 10.3424C18.9602 10.2163 19.1185 10.2163 19.1818 10.3424Z" fill="#FF0082"/>
</g>
<defs>
<clipPath id="clip0">
<rect width="39.63" height="45.5323" fill="white"/>
</clipPath>
</defs>
</svg>
