<svg width="40" height="40" viewBox="0 0 40 40" fill="none" xmlns="http://www.w3.org/2000/svg">
<g clip-path="url(#clip0)">
<path d="M5.21493 25.8276C5.32472 26.1021 5.46196 26.3766 5.57174 26.6511C6.03834 27.6117 5.81877 28.737 5.0777 29.4781L3.26619 31.2896L8.31645 36.3398L10.1554 34.5009C10.8965 33.7598 12.0218 33.5677 12.955 34.0069C13.4765 34.2539 14.0254 34.5009 14.5744 34.693C15.5625 35.0498 16.2212 35.983 16.2212 37.026V39.606H23.3574V37.026C23.3574 35.983 24.0161 35.0498 25.0042 34.693C25.5532 34.5009 26.1021 34.2813 26.6236 34.0069C27.5568 33.5403 28.7096 33.7598 29.4506 34.5009L31.2896 36.3398L36.3398 31.2896L34.5009 29.4506C33.7598 28.7096 33.5677 27.5842 34.0069 26.6511C34.2539 26.1296 34.5009 25.5806 34.693 25.0317C35.0498 24.0436 35.983 23.3849 37.026 23.3849H39.606V16.2486H37.026C35.983 16.2486 35.0498 15.5899 34.693 14.6018C34.5009 14.0529 34.2813 13.5039 34.0069 12.9824C33.5403 12.0492 33.7598 10.8965 34.5009 10.1554L36.3398 8.31645L31.2896 3.26619L29.4506 5.10514C28.7096 5.84621 27.5842 6.03834 26.6511 5.59919C26.1296 5.35217 25.5806 5.10514 25.0317 4.91302C24.0436 4.5562 23.3849 3.62301 23.3849 2.58002V0H16.2486V2.58002C16.2486 3.62301 15.5899 4.5562 14.6018 4.91302C14.0529 5.10514 13.5039 5.32472 12.9824 5.59919C12.0492 6.06579 10.8965 5.84621 10.1554 5.10514L8.31645 3.26619L3.26619 8.31645L5.10514 10.1554C5.84621 10.8965 6.03834 12.0218 5.59919 12.955C5.35217 13.4765 5.10514 14.0254 4.91302 14.5744C4.5562 15.5625 3.62301 16.2212 2.58002 16.2212H0V23.3574H1.61937C3.2113 23.3849 4.6111 24.3455 5.21493 25.8276Z" fill="#000087"/>
<path d="M19.8167 31.7562C26.4107 31.7562 31.7561 26.4107 31.7561 19.8167C31.7561 13.2227 26.4107 7.87726 19.8167 7.87726C13.2227 7.87726 7.87723 13.2227 7.87723 19.8167C7.87723 26.4107 13.2227 31.7562 19.8167 31.7562Z" fill="#326EFF"/>
<path d="M19.8168 29.2036C25.0011 29.2036 29.2037 25.0009 29.2037 19.8167C29.2037 14.6325 25.0011 10.4298 19.8168 10.4298C14.6326 10.4298 10.4299 14.6325 10.4299 19.8167C10.4299 25.0009 14.6326 29.2036 19.8168 29.2036Z" fill="white"/>
<path d="M17.8954 24.5652L14.4096 21.1069L16.0015 19.515L17.8679 21.3814L23.3573 15.8645L24.9767 17.429L17.8954 24.5652Z" fill="#FF0082"/>
</g>
<defs>
<clipPath id="clip0">
<rect width="39.6335" height="39.6335" fill="white"/>
</clipPath>
</defs>
</svg>
