<svg width="20" height="17" viewBox="0 0 20 17" fill="none" xmlns="http://www.w3.org/2000/svg">
<path d="M15.2221 6.9752C15.8884 6.9752 16.4286 6.41673 16.4286 5.72783C16.4286 5.03893 15.8884 4.48047 15.2221 4.48047C14.5558 4.48047 14.0156 5.03893 14.0156 5.72783C14.0156 6.41673 14.5558 6.9752 15.2221 6.9752Z" fill="#00005B"/>
<path d="M4.67132 6.9752C5.33765 6.9752 5.87781 6.41673 5.87781 5.72783C5.87781 5.03893 5.33765 4.48047 4.67132 4.48047C4.005 4.48047 3.46484 5.03893 3.46484 5.72783C3.46484 6.41673 4.005 6.9752 4.67132 6.9752Z" fill="#00005B"/>
<path d="M5.00872 7.44004H3.21728L0.804321 4.94531L0 5.77689L3.09542 8.97719V16.4614H4.3019V12.5555H5.10622V16.474H6.3127V8.7882C6.27614 8.05742 5.72774 7.44004 5.00872 7.44004Z" fill="#00005B"/>
<path d="M13.8993 0.0976562H12.4856V3.92794L11.9494 4.48233H7.96439L7.35506 3.89015V0.0976562H5.94141V4.48233L7.96439 6.54867V16.4646H9.46335V10.7947H10.4505V16.4646H11.9494V6.54867L13.8993 4.53273V0.0976562Z" fill="#00005B"/>
<path d="M9.95943 3.69931C10.7806 3.69931 11.4462 3.0111 11.4462 2.16216C11.4462 1.31321 10.7806 0.625 9.95943 0.625C9.13831 0.625 8.47266 1.31321 8.47266 2.16216C8.47266 3.0111 9.13831 3.69931 9.95943 3.69931Z" fill="#00005B"/>
<path d="M14.9173 7.44004H16.7087L19.1217 4.94531L19.926 5.77689L16.8306 8.97719V16.4614H15.6241V12.5555H14.8198V16.474H13.6133V8.7882C13.6498 8.05742 14.1982 7.44004 14.9173 7.44004Z" fill="#00005B"/>
</svg>
