<svg width="47" height="37" viewBox="0 0 47 37" fill="none" xmlns="http://www.w3.org/2000/svg">
<path d="M21.8195 8.1038C23.8318 8.1038 25.4632 6.47246 25.4632 4.4601C25.4632 2.44774 23.8318 0.816406 21.8195 0.816406C19.8071 0.816406 18.1758 2.44774 18.1758 4.4601C18.1758 6.47246 19.8071 8.1038 21.8195 8.1038Z" fill="white"/>
<path d="M18.1901 9.50781H25.8886L26.4203 11.1879V34.2764C26.4203 35.9849 26.1864 36.2259 25.8886 36.2259H22.9467C22.6561 36.2259 22.4151 35.9919 22.4151 35.6942V22.6648H21.3021V35.6942C21.3021 35.9849 21.0682 36.2259 20.7704 36.2259H17.8285C17.5379 36.2259 17.2969 35.9919 17.2969 34.2764V10.2521L18.1901 9.50781Z" fill="white"/>
<path d="M25.9095 12.6327L33.1614 3.82121C33.3174 3.62981 33.289 3.35334 33.0976 3.19739L31.3609 1.77252C31.1695 1.61656 30.893 1.64492 30.737 1.83632L23.4922 10.6478L25.9095 12.6327Z" fill="white"/>
<path d="M17.8213 12.6334L10.5694 3.82902C10.4134 3.63762 10.4418 3.36116 10.6332 3.2052L12.37 1.78033C12.5614 1.62438 12.8378 1.65273 12.9938 1.84413L20.2457 10.6556L17.8213 12.6334Z" fill="white"/>
<path d="M9.00946 13.89C10.6068 13.89 11.9017 12.5951 11.9017 10.9977C11.9017 9.40038 10.6068 8.10547 9.00946 8.10547C7.4121 8.10547 6.11719 9.40038 6.11719 10.9977C6.11719 12.5951 7.4121 13.89 9.00946 13.89Z" fill="white"/>
<path d="M6.1244 15.0039H12.235L12.6533 16.3366V34.6756C12.6533 36.0367 12.4619 36.221 12.235 36.221H9.90278C9.66885 36.221 9.48454 36.0296 9.48454 35.8027V25.4529H8.59843V35.8027C8.59843 36.0367 8.40703 36.221 8.18018 36.221H5.84793C5.614 36.221 5.42969 36.0296 5.42969 34.6756V15.5994L6.1244 15.0039Z" fill="white"/>
<path d="M12.257 17.4903L18.0132 10.4936C18.1337 10.3447 18.1125 10.1249 17.9636 9.99733L16.5883 8.86311C16.4395 8.7426 16.2197 8.76386 16.0921 8.91273L10.3359 15.9095L12.257 17.4903Z" fill="white"/>
<path d="M5.83414 17.4903L0.0779506 10.4936C-0.0425606 10.3447 -0.0212942 10.1249 0.127573 9.99733L1.50282 8.86311C1.65169 8.7426 1.87144 8.76386 1.99904 8.91273L7.75523 15.9095L5.83414 17.4903Z" fill="white"/>
<path d="M34.4782 13.89C36.0756 13.89 37.3705 12.5951 37.3705 10.9977C37.3705 9.40038 36.0756 8.10547 34.4782 8.10547C32.8809 8.10547 31.5859 9.40038 31.5859 10.9977C31.5859 12.5951 32.8809 13.89 34.4782 13.89Z" fill="white"/>
<path d="M31.601 15.0039H37.7116L38.1298 16.3366V34.6756C38.1298 36.0367 37.9384 36.221 37.7116 36.221H35.3793C35.1454 36.221 34.9611 36.0296 34.9611 35.8027V25.4529H34.075V35.8027C34.075 36.0367 33.8836 36.221 33.6567 36.221H31.3245C31.0906 36.221 30.9062 36.0296 30.9062 34.6756V15.5994L31.601 15.0039Z" fill="white"/>
<path d="M37.7258 17.4903L43.482 10.4936C43.6025 10.3447 43.5812 10.1249 43.4323 9.99733L42.0571 8.86311C41.9082 8.7426 41.6885 8.76386 41.5609 8.91273L35.8047 15.9095L37.7258 17.4903Z" fill="white"/>
<path d="M31.3029 17.4903L25.5467 10.4936C25.4262 10.3447 25.4475 10.1249 25.5963 9.99733L26.9716 8.86311C27.1204 8.7426 27.3402 8.76386 27.4678 8.91273L33.224 15.9095L31.3029 17.4903Z" fill="white"/>
<path d="M40.264 32.3248C43.9716 32.3248 46.9771 29.3192 46.9771 25.6116C46.9771 21.904 43.9716 18.8984 40.264 18.8984C36.5564 18.8984 33.5508 21.904 33.5508 25.6116C33.5508 29.3192 36.5564 32.3248 40.264 32.3248Z" fill="url(#paint0_linear_4_19428)"/>
<path d="M41.2763 24.5911L44.0268 24.6408C44.1615 24.6408 44.2111 24.8109 44.1048 24.8889L41.886 26.5193L42.687 29.1564C42.7225 29.284 42.5807 29.3903 42.4744 29.3123L40.2343 27.7032L37.9729 29.284C37.8666 29.362 37.7177 29.2556 37.7602 29.128L38.5967 26.5051L36.3992 24.8463C36.2928 24.7684 36.3495 24.5982 36.4842 24.5982L39.2418 24.584L40.1421 21.9824C40.1846 21.8548 40.3619 21.8548 40.4044 21.9824L41.2763 24.5911Z" fill="white"/>
<defs>
<linearGradient id="paint0_linear_4_19428" x1="33.5535" y1="25.6128" x2="46.9779" y2="25.6128" gradientUnits="userSpaceOnUse">
<stop stop-color="#0059F9"/>
<stop offset="1" stop-color="#E306F8"/>
</linearGradient>
</defs>
</svg>
