<svg width="42" height="39" viewBox="0 0 42 39" fill="none" xmlns="http://www.w3.org/2000/svg">
<path d="M40.8716 23.43H17.3081C16.8615 23.43 16.5 23.0685 16.5 22.6219V1.62454C16.5 1.17794 16.8615 0.816406 17.3081 0.816406H40.8716C41.3182 0.816406 41.6798 1.17794 41.6798 1.62454V22.6219C41.6798 23.0685 41.3182 23.43 40.8716 23.43Z" fill="url(#paint0_linear_4_19455)"/>
<path d="M35.5168 16.1418C33.298 19.6933 28.6193 20.7708 25.0678 18.552C21.5162 16.3332 20.4387 11.6545 22.6576 8.10294C24.8764 4.5514 29.5551 3.47389 33.1066 5.69272C36.6581 7.91154 37.7356 12.5973 35.5168 16.1418Z" fill="url(#paint1_linear_4_19455)"/>
<path d="M27.828 15.7874L25.1484 13.122L26.3748 11.8956L27.821 13.3346L32.053 9.07422L33.2794 10.2935L27.828 15.7874Z" fill="white"/>
<path d="M9.79213 10.0765C11.8045 10.0765 13.4358 8.44512 13.4358 6.43276C13.4358 4.4204 11.8045 2.78906 9.79213 2.78906C7.77977 2.78906 6.14844 4.4204 6.14844 6.43276C6.14844 8.44512 7.77977 10.0765 9.79213 10.0765Z" fill="white"/>
<path d="M23.6228 11.9342V14.1317C23.6228 14.3798 23.4172 14.5854 23.1691 14.5854H14.3931V37.681C14.3931 37.9717 14.1591 38.2127 13.8614 38.2127H10.9195C10.6289 38.2127 10.3878 37.9788 10.3878 37.681V26.0552H9.27488V37.674C9.27488 37.9646 9.04095 38.2056 8.74322 38.2056H5.80132C5.51068 38.2056 5.26966 37.9717 5.26966 37.674V21.3057V20.611V19.8737L2.80981 26.0836C2.71765 26.3104 2.46954 26.4239 2.23561 26.3459L0.300339 25.6583C0.059316 25.5732 -0.0611947 25.3038 0.030961 25.0699L4.95774 12.3028C5.14914 11.8066 5.6241 11.4805 6.15577 11.4805H13.8543H23.162C23.4172 11.4805 23.6228 11.679 23.6228 11.9342Z" fill="white"/>
<path d="M9.84213 12.0547L10.7991 13.0046L10.0406 13.756L10.7991 20.0439L9.7925 20.9087L8.79297 20.0439L9.55148 13.756L8.79297 13.0046L9.74288 12.0547" fill="#205DF3"/>
<path d="M20.406 31.9879C21.5062 31.9879 22.398 31.096 22.398 29.9959C22.398 28.8957 21.5062 28.0039 20.406 28.0039C19.3059 28.0039 18.4141 28.8957 18.4141 29.9959C18.4141 31.096 19.3059 31.9879 20.406 31.9879Z" fill="white"/>
<path d="M23.9363 38.1821H16.8828V34.8362C16.8828 33.7587 17.7547 32.8867 18.8323 32.8867H21.9939C23.0714 32.8867 23.9434 33.7587 23.9434 34.8362V38.1821H23.9363Z" fill="white"/>
<path d="M28.8201 31.9879C29.9202 31.9879 30.8121 31.096 30.8121 29.9959C30.8121 28.8957 29.9202 28.0039 28.8201 28.0039C27.72 28.0039 26.8281 28.8957 26.8281 29.9959C26.8281 31.096 27.72 31.9879 28.8201 31.9879Z" fill="white"/>
<path d="M32.3425 38.1821H25.2891V34.8362C25.2891 33.7587 26.161 32.8867 27.2385 32.8867H30.4002C31.4777 32.8867 32.3496 33.7587 32.3496 34.8362V38.1821H32.3425Z" fill="white"/>
<path d="M37.574 31.9879C38.6742 31.9879 39.566 31.096 39.566 29.9959C39.566 28.8957 38.6742 28.0039 37.574 28.0039C36.4739 28.0039 35.582 28.8957 35.582 29.9959C35.582 31.096 36.4739 31.9879 37.574 31.9879Z" fill="white"/>
<path d="M41.1042 38.1821H34.0508V34.8362C34.0508 33.7587 34.9227 32.8867 36.0002 32.8867H39.1619C40.2394 32.8867 41.1113 33.7587 41.1113 34.8362V38.1821H41.1042Z" fill="white"/>
<defs>
<linearGradient id="paint0_linear_4_19455" x1="16.5023" y1="12.125" x2="41.6786" y2="12.125" gradientUnits="userSpaceOnUse">
<stop offset="0.0251" stop-color="#C2D3ED"/>
<stop offset="1" stop-color="#C2D3ED"/>
</linearGradient>
<linearGradient id="paint1_linear_4_19455" x1="21.5034" y1="12.1241" x2="36.6722" y2="12.1241" gradientUnits="userSpaceOnUse">
<stop stop-color="#0059F9"/>
<stop offset="1" stop-color="#E306F8"/>
</linearGradient>
</defs>
</svg>
