<svg width="33" height="37" viewBox="0 0 33 37" fill="none" xmlns="http://www.w3.org/2000/svg">
<g clip-path="url(#clip0)">
<path d="M31.7687 34.346L29.6786 36.0324C29.0098 36.5945 28.0066 36.4821 27.4493 35.7794L16.6089 22.2601L21.1513 18.55L31.9916 32.0975C32.549 32.8001 32.4375 33.7839 31.7687 34.346Z" fill="#326EFF"/>
<path d="M27.7 26.4765L22.7675 30.4957C22.5167 30.6925 22.1266 30.6644 21.9315 30.4114L20.2037 28.2472C20.0087 27.9942 20.0365 27.6007 20.2873 27.404L25.2198 23.3847C25.4706 23.188 25.8608 23.2161 26.0559 23.4691L27.7836 25.6333C28.0066 25.9143 27.9508 26.2797 27.7 26.4765Z" fill="#000087"/>
<path d="M12.7911 25.8019C19.8554 25.8019 25.5821 20.0259 25.5821 12.9009C25.5821 5.77595 19.8554 0 12.7911 0C5.72676 0 0 5.77595 0 12.9009C0 20.0259 5.72676 25.8019 12.7911 25.8019Z" fill="#000087"/>
<path d="M12.7912 22.5695C18.0856 22.5695 22.3775 18.2407 22.3775 12.9008C22.3775 7.56093 18.0856 3.23212 12.7912 3.23212C7.49681 3.23212 3.20486 7.56093 3.20486 12.9008C3.20486 18.2407 7.49681 22.5695 12.7912 22.5695Z" fill="white"/>
<path d="M13.8223 11.889V8.74109H11.8995V11.889H8.72264V13.8846H11.8995V17.0888H13.8223V13.8846H16.9992V11.889H13.8223Z" fill="#FF0082"/>
</g>
<defs>
<clipPath id="clip0">
<rect width="32.3539" height="36.3981" fill="white"/>
</clipPath>
</defs>
</svg>
