<svg width="117" height="27" viewBox="0 0 117 27" fill="none" xmlns="http://www.w3.org/2000/svg">
<path d="M26.4045 6.44727H18.7104V20.1147H26.4045V6.44727Z" fill="#7A7A7A"/>
<path d="M19.1985 13.2819C19.1985 10.505 20.5175 8.04195 22.5448 6.44822C21.0793 5.28914 19.1741 4.58887 17.1223 4.58887C12.2615 4.58887 8.32898 8.4766 8.32898 13.2819C8.32898 18.0873 12.2615 21.975 17.1223 21.975C19.1741 21.975 21.0549 21.2747 22.5448 20.1157C20.5175 18.5219 19.1985 16.0589 19.1985 13.2819Z" fill="#404040"/>
<path d="M35.9552 18.6662V18.3764H36.0773V18.3281H35.7842V18.3764H35.9063V18.6662H35.9552ZM36.517 18.6662V18.3281H36.4193L36.3216 18.5696L36.2239 18.3281H36.1262V18.6662H36.1994V18.4006L36.2971 18.6179H36.3704L36.4681 18.4006V18.6662H36.517Z" fill="white"/>
<path d="M36.7851 13.281C36.7851 18.0863 32.8525 21.974 27.9917 21.974C25.94 21.974 24.0592 21.2738 22.5692 20.1147C24.621 18.521 25.9155 16.0579 25.9155 13.281C25.9155 10.504 24.5965 8.04097 22.5692 6.44724C24.0592 5.28817 25.94 4.58789 27.9917 4.58789C32.8525 4.58789 36.7851 8.47563 36.7851 13.281Z" fill="#B8B8B8"/>
<path d="M51.9294 16.2027V12.5806C51.9294 11.2042 51.0501 10.2865 49.6334 10.2865C48.8762 10.2865 48.119 10.5039 47.5816 11.3249C47.1664 10.6729 46.5313 10.2865 45.652 10.2865C45.0169 10.2865 44.4062 10.4797 43.9421 11.1559V10.4314H42.672V16.2027H43.9666V12.9911C43.9666 11.9769 44.5284 11.4456 45.4077 11.4456C46.2626 11.4456 46.6778 12.001 46.6778 12.9669V16.1785H47.9724V12.9911C47.9724 11.9769 48.5586 11.4456 49.4135 11.4456C50.2929 11.4456 50.7081 12.001 50.7081 12.9669V16.1785H51.9294V16.2027ZM70.9327 10.4314H68.8565V8.66867H67.562V10.4314H66.3651V11.5905H67.562V14.2226C67.562 15.5748 68.0993 16.3717 69.5893 16.3717C70.1511 16.3717 70.7862 16.2027 71.177 15.9129L70.8106 14.8263C70.4198 15.0436 70.0046 15.1643 69.687 15.1643C69.052 15.1643 68.8321 14.778 68.8321 14.1984V11.5664H70.9083V10.4314H70.9327ZM81.7778 10.2865C81.0451 10.2865 80.5565 10.6246 80.239 11.1317V10.4314H78.9689V16.2027H80.239V12.9669C80.239 12.001 80.6543 11.4698 81.4847 11.4698C81.7534 11.4698 82.0221 11.5181 82.2908 11.6147L82.6816 10.4314C82.4129 10.3348 82.0465 10.2865 81.7778 10.2865ZM65.3881 10.8902C64.7774 10.4797 63.9225 10.2865 62.9943 10.2865C61.5044 10.2865 60.5517 10.9868 60.5517 12.1459C60.5517 13.0877 61.2601 13.6672 62.5791 13.8604L63.1897 13.957C63.8981 14.0535 64.2156 14.2467 64.2156 14.5606C64.2156 15.0194 63.7515 15.2609 62.8722 15.2609C61.9929 15.2609 61.3578 14.9711 60.9181 14.6572L60.3075 15.6473C61.0158 16.1544 61.8952 16.3958 62.8478 16.3958C64.5332 16.3958 65.5102 15.599 65.5102 14.5123C65.5102 13.4982 64.7286 12.9669 63.4584 12.7737L62.8478 12.6771C62.286 12.6047 61.8463 12.484 61.8463 12.0976C61.8463 11.663 62.2616 11.4215 62.9699 11.4215C63.7271 11.4215 64.4355 11.7112 64.8018 11.9286L65.3881 10.8902ZM99.4622 10.2865C98.7294 10.2865 98.2409 10.6246 97.9234 11.1317V10.4314H96.6532V16.2027H97.9234V12.9669C97.9234 12.001 98.3386 11.4698 99.1691 11.4698C99.4378 11.4698 99.7064 11.5181 99.9751 11.6147L100.366 10.4314C100.097 10.3348 99.7309 10.2865 99.4622 10.2865ZM83.0724 13.305C83.0724 15.0677 84.3181 16.3476 86.1989 16.3476C87.0783 16.3476 87.6645 16.1544 88.2996 15.6473L87.6889 14.6331C87.2004 14.9711 86.7119 15.1643 86.1501 15.1643C85.1242 15.1643 84.3914 14.4158 84.3914 13.305C84.3914 12.1942 85.1486 11.4698 86.1501 11.4456C86.7119 11.4456 87.2004 11.6388 87.6889 11.9769L88.2996 10.9627C87.6645 10.4556 87.0783 10.2624 86.1989 10.2624C84.3181 10.2865 83.0724 11.5664 83.0724 13.305ZM94.9922 13.305V10.4073H93.7221V11.1076C93.3069 10.5763 92.6962 10.2624 91.8657 10.2624C90.2292 10.2624 88.9346 11.5422 88.9346 13.305C88.9346 15.0677 90.2292 16.3476 91.8657 16.3476C92.6962 16.3476 93.3069 16.0095 93.7221 15.5024V16.2027H94.9922V13.305ZM90.2536 13.305C90.2536 12.2908 90.9375 11.4456 92.0367 11.4456C93.087 11.4456 93.7954 12.2425 93.7954 13.305C93.7954 14.3675 93.087 15.1643 92.0367 15.1643C90.9131 15.1643 90.2536 14.3192 90.2536 13.305ZM74.8897 10.2865C73.1799 10.2865 71.9831 11.5181 71.9831 13.3291C71.9831 15.1643 73.2288 16.3717 74.9874 16.3717C75.8668 16.3717 76.6728 16.1544 77.3812 15.5507L76.7461 14.6089C76.2576 14.9953 75.6225 15.2126 75.0363 15.2126C74.2058 15.2126 73.473 14.8263 73.2776 13.7879H77.6254C77.6499 13.6189 77.6499 13.474 77.6499 13.305C77.6743 11.5181 76.5263 10.2865 74.8897 10.2865ZM74.8653 11.3973C75.6958 11.3973 76.2087 11.9044 76.3553 12.7979H73.3265C73.4486 11.9769 73.9616 11.3973 74.8653 11.3973ZM106.79 13.305V8.11328H105.52V11.1317C105.105 10.6005 104.494 10.2865 103.663 10.2865C102.027 10.2865 100.732 11.5664 100.732 13.3291C100.732 15.0919 102.027 16.3717 103.663 16.3717C104.494 16.3717 105.105 16.0336 105.52 15.5265V16.2268H106.79V13.305ZM108.28 15.6714C108.329 15.6714 108.378 15.6714 108.426 15.6956C108.475 15.7197 108.524 15.7439 108.549 15.768C108.573 15.7922 108.622 15.8405 108.622 15.8888C108.646 15.937 108.646 15.9853 108.646 16.0336C108.646 16.0819 108.646 16.1302 108.622 16.1785C108.597 16.2268 108.573 16.251 108.549 16.2993C108.524 16.3234 108.475 16.3476 108.426 16.3717C108.378 16.3958 108.329 16.3958 108.28 16.3958C108.231 16.3958 108.182 16.3958 108.133 16.3717C108.085 16.3476 108.036 16.3234 108.011 16.2993C107.987 16.2751 107.962 16.2268 107.938 16.1785C107.914 16.1302 107.914 16.0819 107.914 16.0336C107.914 15.9853 107.914 15.937 107.938 15.8888C107.962 15.8405 107.987 15.8163 108.011 15.768C108.036 15.7439 108.085 15.7197 108.133 15.6956C108.182 15.6714 108.231 15.6714 108.28 15.6714ZM108.28 16.3234C108.329 16.3234 108.353 16.3234 108.402 16.2993C108.426 16.2751 108.475 16.2751 108.5 16.2268C108.524 16.2027 108.549 16.1785 108.573 16.1302C108.597 16.1061 108.597 16.0578 108.597 16.0095C108.597 15.9612 108.597 15.937 108.573 15.8888C108.549 15.8646 108.549 15.8163 108.5 15.7922C108.475 15.768 108.451 15.7439 108.402 15.7197C108.378 15.6956 108.329 15.6956 108.28 15.6956C108.231 15.6956 108.207 15.6956 108.158 15.7197C108.133 15.7439 108.085 15.7439 108.06 15.7922C108.036 15.8163 108.011 15.8405 107.987 15.8888C107.962 15.9129 107.962 15.9612 107.962 16.0095C107.962 16.0578 107.962 16.0819 107.987 16.1302C108.011 16.1544 108.011 16.2027 108.06 16.2268C108.085 16.251 108.109 16.2751 108.158 16.2993C108.207 16.3234 108.231 16.3234 108.28 16.3234ZM108.304 15.8646C108.353 15.8646 108.378 15.8646 108.402 15.8888C108.426 15.9129 108.426 15.937 108.426 15.9612C108.426 15.9853 108.426 16.0095 108.402 16.0336C108.378 16.0578 108.353 16.0578 108.329 16.0578L108.451 16.1785H108.353L108.256 16.0578H108.207V16.1785H108.133V15.8405H108.304V15.8646ZM108.207 15.937V16.0336H108.28C108.304 16.0336 108.304 16.0336 108.329 16.0336L108.353 16.0095C108.353 15.9853 108.353 15.9853 108.329 15.9853C108.329 15.9853 108.304 15.9853 108.28 15.9853H108.207V15.937ZM102.051 13.305C102.051 12.2908 102.735 11.4456 103.834 11.4456C104.885 11.4456 105.593 12.2425 105.593 13.305C105.593 14.3675 104.885 15.1643 103.834 15.1643C102.735 15.1643 102.051 14.3192 102.051 13.305ZM59.0862 13.305V10.4073H57.816V11.1076C57.4008 10.5763 56.7902 10.2624 55.9597 10.2624C54.3231 10.2624 53.0286 11.5422 53.0286 13.305C53.0286 15.0677 54.3231 16.3476 55.9597 16.3476C56.7902 16.3476 57.4008 16.0095 57.816 15.5024V16.2027H59.0862V13.305ZM54.3476 13.305C54.3476 12.2908 55.0315 11.4456 56.1307 11.4456C57.181 11.4456 57.8893 12.2425 57.8893 13.305C57.8893 14.3675 57.181 15.1643 56.1307 15.1643C55.0315 15.1643 54.3476 14.3192 54.3476 13.305Z" fill="white"/>
</svg>
