<svg width="40" height="40" viewBox="0 0 40 40" fill="none" xmlns="http://www.w3.org/2000/svg">
<g clip-path="url(#clip0)">
<path d="M18.8531 39.6298C29.2654 39.6298 37.7062 31.2007 37.7062 20.8028C37.7062 10.405 29.2654 1.97583 18.8531 1.97583C8.44082 1.97583 0 10.405 0 20.8028C0 31.2007 8.44082 39.6298 18.8531 39.6298Z" fill="#000087"/>
<path d="M18.8533 33.4C25.8201 33.4 31.4679 27.7601 31.4679 20.8029C31.4679 13.8457 25.8201 8.20581 18.8533 8.20581C11.8865 8.20581 6.23877 13.8457 6.23877 20.8029C6.23877 27.7601 11.8865 33.4 18.8533 33.4Z" fill="#326EFF"/>
<path d="M18.8534 26.264C21.8739 26.264 24.3225 23.8188 24.3225 20.8025C24.3225 17.7863 21.8739 15.3411 18.8534 15.3411C15.833 15.3411 13.3844 17.7863 13.3844 20.8025C13.3844 23.8188 15.833 26.264 18.8534 26.264Z" fill="white"/>
<path d="M18.0837 21.5166C17.644 21.0775 17.644 20.3914 18.0837 19.9523L32.7594 5.29686C33.1992 4.85775 33.8862 4.85775 34.3259 5.29686C34.7657 5.73598 34.7657 6.42209 34.3259 6.86121L19.6227 21.5166C19.2105 21.9557 18.4959 21.9557 18.0837 21.5166Z" fill="#FF0082"/>
<path d="M35.0131 4.58299L33.8863 0.493746C33.7489 -0.000256913 33.1168 -0.164924 32.7596 0.191855L25.8339 7.13534L26.7683 12.8438" fill="#5F96FF"/>
<path d="M26.7681 12.8436L32.4845 13.7767L39.4376 6.83322C39.7948 6.47644 39.6299 5.84521 39.1353 5.70799L35.0403 4.58276" fill="#326EFF"/>
</g>
<defs>
<clipPath id="clip0">
<rect width="39.63" height="39.63" fill="white"/>
</clipPath>
</defs>
</svg>
