<svg width="75" height="20" viewBox="0 0 75 20" fill="none" xmlns="http://www.w3.org/2000/svg">
<path d="M27.9502 4.08203H23.8137C23.6768 4.08194 23.5443 4.13077 23.4402 4.21971C23.3361 4.30864 23.2671 4.43184 23.2458 4.56711L21.5728 15.1742C21.5651 15.2234 21.5682 15.2737 21.5818 15.3216C21.5954 15.3695 21.6192 15.4139 21.6517 15.4518C21.6841 15.4896 21.7243 15.5199 21.7696 15.5407C21.8149 15.5615 21.8641 15.5722 21.9139 15.5722H23.8887C24.0258 15.5722 24.1583 15.5233 24.2624 15.4342C24.3666 15.3452 24.4355 15.2218 24.4567 15.0865L24.9079 12.2256C24.9291 12.0903 24.9979 11.967 25.1019 11.878C25.2059 11.7889 25.3383 11.74 25.4752 11.7399H26.7847C29.5095 11.7399 31.0821 10.4213 31.4928 7.80844C31.6778 6.6653 31.5006 5.76711 30.9653 5.13808C30.3774 4.44735 29.3347 4.08203 27.9502 4.08203ZM28.4274 7.95602C28.2012 9.4403 27.0672 9.4403 25.9706 9.4403H25.3464L25.7843 6.66832C25.7971 6.58722 25.8384 6.51336 25.9009 6.46003C25.9633 6.4067 26.0427 6.3774 26.1248 6.37739H26.4109C27.1579 6.37739 27.8625 6.37739 28.2266 6.8032C28.4438 7.05723 28.5103 7.43465 28.4274 7.95602ZM40.3149 7.90824H38.3341C38.252 7.90824 38.1726 7.93755 38.1101 7.99088C38.0477 8.04421 38.0064 8.11807 37.9936 8.19917L37.9059 8.7532L37.7674 8.55239C37.3385 7.93002 36.3823 7.72195 35.4278 7.72195C33.2389 7.72195 31.3694 9.37981 31.0053 11.7054C30.8159 12.8655 31.0851 13.9748 31.7432 14.7484C32.3468 15.4597 33.2105 15.756 34.2381 15.756C36.0018 15.756 36.9799 14.6219 36.9799 14.6219L36.8915 15.1724C36.8837 15.2216 36.8866 15.2719 36.9 15.3199C36.9135 15.3679 36.9372 15.4124 36.9695 15.4503C37.0018 15.4882 37.042 15.5187 37.0872 15.5397C37.1324 15.5606 37.1816 15.5715 37.2315 15.5715H39.0157C39.1528 15.5716 39.2853 15.5227 39.3895 15.4336C39.4936 15.3446 39.5625 15.2212 39.5837 15.0859L40.6542 8.30622C40.6621 8.25712 40.6593 8.2069 40.6458 8.15902C40.6324 8.11114 40.6087 8.06674 40.5765 8.0289C40.5442 7.99106 40.5041 7.96067 40.459 7.93984C40.4138 7.91901 40.3647 7.90823 40.3149 7.90824ZM37.5538 11.7635C37.3627 12.8951 36.4645 13.6548 35.319 13.6548C34.7438 13.6548 34.2841 13.4703 33.9889 13.1207C33.6962 12.7736 33.5849 12.2794 33.678 11.729C33.8565 10.607 34.7698 9.82256 35.8978 9.82256C36.4603 9.82256 36.9176 10.0095 37.2188 10.3621C37.5206 10.7183 37.6403 11.2155 37.5538 11.7635ZM50.8645 7.90824H48.874C48.7801 7.90839 48.6877 7.93144 48.6048 7.97539C48.5218 8.01934 48.4508 8.08287 48.398 8.16046L45.6526 12.2044L44.4889 8.31832C44.4532 8.1998 44.3803 8.09592 44.2809 8.02207C44.1816 7.94821 44.0611 7.9083 43.9373 7.90824H41.9813C41.9264 7.90809 41.8722 7.92107 41.8233 7.94607C41.7744 7.97108 41.7322 8.0074 41.7002 8.05201C41.6682 8.09663 41.6473 8.14824 41.6393 8.20255C41.6313 8.25687 41.6363 8.31232 41.654 8.36429L43.8466 14.7986L41.7853 17.7084C41.7487 17.76 41.7269 17.8207 41.7225 17.8838C41.718 17.9469 41.7311 18.0101 41.7601 18.0663C41.7892 18.1225 41.8331 18.1696 41.8872 18.2025C41.9412 18.2354 42.0033 18.2528 42.0665 18.2528H44.0546C44.1475 18.2529 44.2389 18.2305 44.3212 18.1876C44.4035 18.1446 44.4741 18.0823 44.527 18.006L51.1476 8.44957C51.1835 8.39787 51.2045 8.33733 51.2084 8.27452C51.2124 8.21171 51.199 8.14902 51.1699 8.09325C51.1407 8.03747 51.0968 7.99075 51.043 7.95814C50.9892 7.92553 50.9275 7.90827 50.8645 7.90824Z" fill="white"/>
<path d="M57.4551 4.08264H53.318C53.1812 4.08269 53.0489 4.13158 52.9449 4.22051C52.8409 4.30943 52.772 4.43255 52.7507 4.56772L51.0777 15.1748C51.0699 15.2239 51.0729 15.2741 51.0864 15.322C51.0999 15.3699 51.1236 15.4143 51.1559 15.4521C51.1882 15.4899 51.2284 15.5203 51.2735 15.5411C51.3187 15.562 51.3679 15.5728 51.4176 15.5728H53.5406C53.6364 15.5726 53.729 15.5383 53.8017 15.476C53.8744 15.4137 53.9226 15.3275 53.9374 15.2328L54.4122 12.2262C54.4334 12.0909 54.5022 11.9676 54.6062 11.8786C54.7102 11.7896 54.8426 11.7406 54.9795 11.7405H56.2884C59.0138 11.7405 60.5858 10.422 60.9971 7.80905C61.1827 6.6659 61.0043 5.76772 60.469 5.13868C59.8817 4.44796 58.8396 4.08264 57.4551 4.08264ZM57.9323 7.95663C57.7067 9.4409 56.5727 9.4409 55.4755 9.4409H54.8519L55.2904 6.66893C55.303 6.58783 55.3442 6.51391 55.4065 6.46054C55.4689 6.40718 55.5483 6.3779 55.6303 6.378H55.9164C56.6628 6.378 57.368 6.378 57.7321 6.80381C57.9493 7.05784 58.0152 7.43526 57.9323 7.95663ZM69.8192 7.90885H67.8396C67.7575 7.90862 67.678 7.93786 67.6157 7.99124C67.5533 8.04463 67.5121 8.11862 67.4997 8.19977L67.412 8.75381L67.2729 8.553C66.844 7.93062 65.8884 7.72256 64.934 7.72256C62.745 7.72256 60.8761 9.38042 60.512 11.706C60.3233 12.8661 60.5912 13.9754 61.2493 14.749C61.8541 15.4603 62.7166 15.7566 63.7442 15.7566C65.5079 15.7566 66.486 14.6226 66.486 14.6226L66.3977 15.173C66.3898 15.2223 66.3927 15.2727 66.4062 15.3208C66.4198 15.3688 66.4436 15.4134 66.476 15.4514C66.5084 15.4893 66.5487 15.5198 66.5941 15.5407C66.6395 15.5615 66.6889 15.5723 66.7388 15.5722H68.5225C68.6594 15.5721 68.7918 15.5231 68.8958 15.4341C68.9998 15.345 69.0686 15.2217 69.0898 15.0865L70.161 8.30683C70.1686 8.25757 70.1654 8.20726 70.1517 8.15934C70.138 8.11142 70.1141 8.06703 70.0817 8.02922C70.0492 7.99141 70.0089 7.96107 69.9636 7.94029C69.9183 7.91952 69.8691 7.90879 69.8192 7.90885ZM67.0582 11.7641C66.8682 12.8957 65.9688 13.6554 64.8233 13.6554C64.2493 13.6554 63.7884 13.4709 63.4932 13.1213C63.2005 12.7742 63.0904 12.28 63.1823 11.7296C63.362 10.6076 64.2741 9.82316 65.4021 9.82316C65.9646 9.82316 66.4219 10.0101 66.7231 10.3627C67.0261 10.7189 67.1459 11.2161 67.0582 11.7641ZM72.1545 4.37356L70.4567 15.1748C70.449 15.2239 70.4519 15.2741 70.4654 15.322C70.4789 15.3699 70.5027 15.4143 70.535 15.4521C70.5673 15.4899 70.6074 15.5203 70.6526 15.5411C70.6978 15.562 70.7469 15.5728 70.7967 15.5728H72.5035C72.7872 15.5728 73.0279 15.3671 73.0715 15.0871L74.7457 4.48062C74.7534 4.43146 74.7505 4.38119 74.737 4.33328C74.7235 4.28537 74.6997 4.24095 74.6674 4.20308C74.6351 4.16521 74.595 4.13478 74.5499 4.11388C74.5047 4.09298 74.4555 4.08212 74.4057 4.08203H72.4944C72.4124 4.08232 72.3331 4.11182 72.2708 4.16524C72.2085 4.21866 72.1673 4.29251 72.1545 4.37356Z" fill="#B1B1CF"/>
<path d="M4.39453 17.6333L4.71087 15.624L4.00623 15.6076H0.64151L2.97982 0.78124C2.98678 0.735939 3.00979 0.694647 3.04465 0.664893C3.07951 0.635138 3.1239 0.618902 3.16974 0.619143H8.84312C10.7266 0.619143 12.0264 1.01108 12.705 1.78467C13.0232 2.14757 13.2258 2.5268 13.3238 2.94414C13.4266 3.38205 13.4284 3.90523 13.328 4.54334L13.3207 4.58991V4.99878L13.6389 5.17902C13.8818 5.30207 14.1001 5.46852 14.283 5.67015C14.5552 5.98043 14.7312 6.37479 14.8056 6.84233C14.8824 7.32317 14.857 7.89535 14.7312 8.54313C14.5861 9.2883 14.3514 9.93729 14.0345 10.4683C13.7548 10.9441 13.3788 11.3561 12.9306 11.678C12.5097 11.9768 12.0095 12.2036 11.4439 12.3488C10.8959 12.4915 10.2711 12.5635 9.58587 12.5635H9.14433C8.82861 12.5635 8.52195 12.6772 8.28123 12.881C8.04084 13.087 7.88138 13.3717 7.83123 13.6843L7.79796 13.8651L7.23909 17.4064L7.21369 17.5365C7.20703 17.5776 7.19554 17.5982 7.17861 17.6121C7.1622 17.6255 7.14173 17.633 7.12054 17.6333H4.39453Z" fill="white"/>
<path d="M13.9398 4.6377C13.9229 4.74596 13.9035 4.85665 13.8818 4.97036C13.1336 8.81169 10.5739 10.1387 7.30475 10.1387H5.64023C5.24043 10.1387 4.90354 10.429 4.84124 10.8234L3.98902 16.2282L3.74769 17.7603C3.73808 17.821 3.74175 17.8832 3.75845 17.9424C3.77515 18.0016 3.80449 18.0565 3.84444 18.1033C3.88439 18.1501 3.93401 18.1877 3.98987 18.2134C4.04574 18.2392 4.10653 18.2526 4.16806 18.2526H7.12027C7.46987 18.2526 7.76684 17.9986 7.82189 17.6538L7.85092 17.5038L8.40676 13.9764L8.44245 13.7829C8.49689 13.4369 8.79447 13.1829 9.14406 13.1829H9.58559C12.4459 13.1829 14.685 12.0216 15.3394 8.66108C15.6128 7.25725 15.4713 6.08507 14.7479 5.26068C14.5186 5.00566 14.2448 4.79455 13.9398 4.6377Z" fill="#B1B1CF"/>
<path d="M13.1581 4.3254C12.9192 4.2563 12.6762 4.20236 12.4305 4.16391C11.945 4.0893 11.4544 4.0535 10.9632 4.05686H6.5164C6.34717 4.05673 6.18348 4.11714 6.05491 4.22718C5.92634 4.33723 5.84139 4.48963 5.81539 4.65686L4.86943 10.6484L4.84221 10.8232C4.87168 10.6325 4.96844 10.4586 5.11499 10.333C5.26154 10.2074 5.4482 10.1384 5.6412 10.1385H7.30572C10.5749 10.1385 13.1345 8.81089 13.8827 4.97016C13.9051 4.85645 13.9239 4.74577 13.9408 4.6375C13.7434 4.53397 13.5376 4.44717 13.3257 4.37803C13.2701 4.35959 13.2143 4.34205 13.1581 4.3254Z" fill="#66668F"/>
<path d="M5.81496 4.65665C5.84073 4.48938 5.92564 4.3369 6.05427 4.22692C6.1829 4.11693 6.34672 4.05673 6.51596 4.05726H10.9627C11.4896 4.05726 11.9813 4.09173 12.4301 4.16431C12.7338 4.21204 13.0333 4.28343 13.3258 4.37782C13.5466 4.45101 13.7517 4.5375 13.941 4.6373C14.1635 3.21774 13.9392 2.25121 13.1716 1.37601C12.3254 0.4125 10.7982 0 8.84399 0H3.1706C2.77141 0 2.43088 0.290323 2.36919 0.685282L0.00608533 15.6641C-0.00492162 15.7337 -0.00073385 15.8048 0.0183606 15.8725C0.037455 15.9403 0.0710029 16.0031 0.116697 16.0567C0.16239 16.1103 0.219145 16.1533 0.283058 16.1828C0.34697 16.2124 0.416523 16.2277 0.486932 16.2278H3.98955L4.86899 10.6482L5.81496 4.65665Z" fill="white"/>
</svg>
