<svg width="47" height="47" viewBox="0 0 47 47" fill="none" xmlns="http://www.w3.org/2000/svg">
<path d="M43.3001 23.5013L45.0794 21.5023L42.9598 19.8577L44.3492 17.5679L41.9603 16.3416L42.9031 13.8321L40.3298 13.0736L40.7906 10.4294L38.1252 10.153L38.0968 7.47335L35.4243 7.6931L34.8997 5.06312L32.3123 5.76492L31.3198 3.27672L28.9096 4.4393L27.4706 2.17794L25.3155 3.77294L23.4795 1.81641L21.6506 3.77294L19.4955 2.17794L18.0565 4.4393L15.6463 3.27672L14.6467 5.76492L12.0593 5.06312L11.5418 7.6931L8.86928 7.47335L8.84093 10.153L6.1755 10.4294L6.63628 13.0736L4.06301 13.8321L4.99875 16.3416L2.61688 17.5679L3.99921 19.8577L1.88672 21.5023L3.66603 23.5013L1.88672 25.5075L3.99921 27.145L2.61688 29.4418L4.99875 30.6611L4.06301 33.1777L6.63628 33.9362L6.1755 36.5804L8.84093 36.8568L8.86928 39.5364L11.5418 39.3167L12.0593 41.9467L14.6467 41.2449L15.6463 43.7331L18.0565 42.5634L19.4955 44.8318L21.6506 43.2368L23.4795 45.1934L25.3155 43.2368L27.4706 44.8318L28.9096 42.5634L31.3198 43.7331L32.3194 41.2449L34.9068 41.9467L35.4243 39.3167L38.0968 39.5293L38.1252 36.8497L40.7906 36.5733L40.3298 33.9362L42.9031 33.1777L41.9674 30.6611L44.3492 29.4418L42.9598 27.145L45.0794 25.5075L43.3001 23.5013Z" fill="url(#paint0_linear_4_19419)"/>
<path d="M43.3001 23.5013L45.0794 21.5023L42.9598 19.8577L44.3492 17.5679L41.9603 16.3416L42.9031 13.8321L40.3298 13.0736L40.7906 10.4294L38.1252 10.153L38.0968 7.47335L35.4243 7.6931L34.8997 5.06312L32.3123 5.76492L31.3198 3.27672L28.9096 4.4393L27.4706 2.17794L25.3155 3.77294L23.4795 1.81641L21.6506 3.77294L19.4955 2.17794L18.0565 4.4393L15.6463 3.27672L14.6467 5.76492L12.0593 5.06312L11.5418 7.6931L8.86928 7.47335L8.84093 10.153L6.1755 10.4294L6.63628 13.0736L4.06301 13.8321L4.99875 16.3416L2.61688 17.5679L3.99921 19.8577L1.88672 21.5023L3.66603 23.5013L1.88672 25.5075L3.99921 27.145L2.61688 29.4418L4.99875 30.6611L4.06301 33.1777L6.63628 33.9362L6.1755 36.5804L8.84093 36.8568L8.86928 39.5364L11.5418 39.3167L12.0593 41.9467L14.6467 41.2449L15.6463 43.7331L18.0565 42.5634L19.4955 44.8318L21.6506 43.2368L23.4795 45.1934L25.3155 43.2368L27.4706 44.8318L28.9096 42.5634L31.3198 43.7331L32.3194 41.2449L34.9068 41.9467L35.4243 39.3167L38.0968 39.5293L38.1252 36.8497L40.7906 36.5733L40.3298 33.9362L42.9031 33.1777L41.9674 30.6611L44.3492 29.4418L42.9598 27.145L45.0794 25.5075L43.3001 23.5013Z" stroke="white" stroke-width="1.5" stroke-miterlimit="10"/>
<path d="M23.4787 38.1762C31.5829 38.1762 38.1527 31.6064 38.1527 23.5021C38.1527 15.3979 31.5829 8.82812 23.4787 8.82812C15.3745 8.82812 8.80469 15.3979 8.80469 23.5021C8.80469 31.6064 15.3745 38.1762 23.4787 38.1762Z" fill="white" stroke="white" stroke-width="2" stroke-miterlimit="10"/>
<path d="M25.3454 21.6995L30.3856 21.7988C30.5912 21.8059 30.6763 22.0611 30.5132 22.1887L26.4938 25.2369L27.9541 30.0644C28.0108 30.2629 27.7911 30.4189 27.621 30.3055L23.481 27.4274L19.3411 30.3055C19.171 30.4189 18.9512 30.2629 19.008 30.0644L20.4683 25.2369L16.4489 22.1887C16.2858 22.0682 16.3709 21.8059 16.5765 21.7988L21.6167 21.6924L23.2684 16.9287C23.3322 16.7373 23.6086 16.7373 23.6724 16.9287L25.3454 21.6995Z" fill="#205DF3"/>
<defs>
<linearGradient id="paint0_linear_4_19419" x1="1.88367" y1="23.5043" x2="45.0812" y2="23.5043" gradientUnits="userSpaceOnUse">
<stop stop-color="#0059F9"/>
<stop offset="1" stop-color="#E306F8"/>
</linearGradient>
</defs>
</svg>
