<svg width="30" height="44" viewBox="0 0 30 44" fill="none" xmlns="http://www.w3.org/2000/svg">
<g clip-path="url(#clip0)">
<path d="M19.4013 43.6777L22.8269 38.5485L28.5881 40.5556L22.4532 21.8229L13.2975 24.9451L19.4013 43.6777Z" fill="#326EFF"/>
<path d="M10.5258 43.6777L7.10022 38.5485L1.37012 40.5556L7.47392 21.8229L16.6296 24.9451L10.5258 43.6777Z" fill="#326EFF"/>
<path d="M14.9792 30.6477C23.252 30.6477 29.9585 23.787 29.9585 15.3238C29.9585 6.86072 23.252 0 14.9792 0C6.70643 0 0 6.86072 0 15.3238C0 23.787 6.70643 30.6477 14.9792 30.6477Z" fill="#000087"/>
<path d="M23.3254 20.6759C20.4292 25.3909 14.3565 26.8246 9.74752 23.8936C5.13853 20.9308 3.73714 14.7184 6.60219 10.0034C9.49839 5.22462 15.571 3.791 20.2112 6.75382C24.8202 9.71664 26.2216 15.929 23.3254 20.6759Z" fill="white"/>
<path d="M15.1661 10.5453L16.1938 13.6992C16.2249 13.7948 16.2872 13.8267 16.3806 13.8267L19.6505 13.8585C19.8374 13.8585 19.9308 14.1134 19.7751 14.209L17.128 16.2161C17.0657 16.2798 17.0346 16.3435 17.0657 16.4391L18.0623 19.6249C18.1246 19.816 17.9066 19.9753 17.7509 19.8479L15.1038 17.9045C15.0415 17.8408 14.9481 17.8408 14.8858 17.9045L12.2387 19.8479C12.083 19.9753 11.865 19.816 11.9273 19.6249L12.9239 16.4391C12.955 16.3435 12.9239 16.2798 12.8616 16.2161L10.2457 14.2408C10.09 14.1134 10.1834 13.8904 10.3702 13.8904L13.6401 13.8585C13.7336 13.8585 13.7958 13.7948 13.827 13.7311L14.8547 10.5453C14.8547 10.3541 15.1038 10.3541 15.1661 10.5453Z" fill="#FF0082"/>
</g>
<defs>
<clipPath id="clip0">
<rect width="29.9273" height="43.6777" fill="white"/>
</clipPath>
</defs>
</svg>
