<svg width="55" height="18" viewBox="0 0 55 18" fill="none" xmlns="http://www.w3.org/2000/svg">
<path fill-rule="evenodd" clip-rule="evenodd" d="M2.9903 0.216797L2.99111 0.221646H0V0.728381V0.729998C2.33438 0.804261 3.03135 1.90261 3.28933 3.18124L4.66568 16.83H9.19478L18.8712 0.216797H14.3421L8.5264 10.202L7.5194 0.216797H2.9903Z" fill="white"/>
<path fill-rule="evenodd" clip-rule="evenodd" d="M21.2829 0.207031H25.6787L20.2877 16.8363H15.8919L21.2829 0.207031Z" fill="white"/>
<path fill-rule="evenodd" clip-rule="evenodd" d="M45.7844 0.844727L37.283 17.1427H42.0521L43.2927 14.6543H48.8288L49.0187 17.1427H53.4145L52.1707 0.844727C50.0419 0.844727 47.9131 0.844727 45.7844 0.844727ZM48.0942 5.02711L48.6203 11.9177H44.6577L48.0942 5.02711Z" fill="white"/>
<path d="M26.7576 4.43724C27.4172 1.80035 29.5825 0 33.2683 0C36.7209 0 39.2813 2.15642 39.2813 2.15642L36.6688 4.8934C36.6688 4.8934 34.7376 3.4005 33.6 3.4005C32.0959 3.4005 31.4167 3.94972 31.2777 4.85193C31.0007 6.65089 37.4107 7.75189 37.2079 11.9432C37.0724 14.7423 34.1754 17.4587 30.863 17.4587C25.8961 17.4587 23.44 15.4681 23.44 15.4681L25.6794 12.275C25.6794 12.275 27.924 14.073 30.0337 13.9752C31.4569 13.9093 32.5539 13.3638 32.4804 12.3994C32.3136 10.2134 25.5636 9.21 26.7576 4.43724Z" fill="white"/>
<path d="M53.6513 0.539062C53.4979 0.539064 53.3476 0.578446 53.2014 0.657219C53.0553 0.735996 52.9417 0.849349 52.8597 0.99599C52.7777 1.14263 52.7368 1.29541 52.7368 1.45457C52.7368 1.61212 52.7773 1.76359 52.8581 1.90902C52.9388 2.05445 53.0516 2.1674 53.1965 2.24779C53.3414 2.32818 53.493 2.36843 53.6513 2.36843C53.8096 2.36843 53.9612 2.32818 54.1061 2.24779C54.251 2.1674 54.3634 2.05445 54.4437 1.90902C54.5241 1.76359 54.5642 1.61212 54.5642 1.45457C54.5642 1.29541 54.5236 1.14263 54.4421 0.99599C54.3605 0.849349 54.2465 0.735996 54.1004 0.657219C53.9542 0.578446 53.8047 0.539064 53.6513 0.539062ZM53.6513 0.691097C53.7789 0.691099 53.9031 0.723577 54.025 0.789423C54.1469 0.855273 54.2419 0.949604 54.3102 1.07201C54.3784 1.19441 54.4126 1.32207 54.4126 1.45457C54.4126 1.58627 54.3796 1.71222 54.3126 1.833C54.2456 1.95379 54.151 2.04813 54.0299 2.11559C53.9088 2.18305 53.7829 2.21639 53.6513 2.21639C53.5197 2.21639 53.393 2.18305 53.2719 2.11559C53.1508 2.04813 53.0566 1.95379 52.9892 1.833C52.9218 1.71222 52.8884 1.58627 52.8884 1.45457C52.8884 1.32207 52.9222 1.19441 52.9908 1.07201C53.0595 0.949604 53.1545 0.855273 53.276 0.789423C53.3975 0.723577 53.5229 0.691099 53.6513 0.691097Z" fill="white"/>
<path d="M53.2731 0.950195V2.02836H53.4328V1.5703H53.5266C53.5826 1.5703 53.625 1.58263 53.6542 1.60741C53.6964 1.64105 53.7524 1.72541 53.8213 1.85907L53.9086 2.02836H54.1028L53.9826 1.81743C53.9251 1.71741 53.8767 1.64628 53.8369 1.60379C53.8159 1.58166 53.7879 1.56269 53.753 1.54676C53.8382 1.53968 53.9064 1.50651 53.9579 1.44809C54.0095 1.38967 54.0353 1.32138 54.0353 1.24259C54.0353 1.18683 54.0192 1.13465 53.9884 1.08508C53.9576 1.03551 53.9168 0.999987 53.8649 0.980068C53.813 0.960154 53.729 0.950197 53.6131 0.950195H53.2731ZM53.4328 1.09685H53.6139C53.6917 1.09685 53.7456 1.10256 53.7744 1.11495C53.8032 1.12735 53.8257 1.14676 53.8419 1.17198C53.8581 1.19721 53.8658 1.22521 53.8658 1.25708C53.8658 1.30665 53.8492 1.34648 53.8155 1.37657C53.7819 1.40667 53.7187 1.42183 53.6262 1.42183H53.4328V1.09685Z" fill="white"/>
</svg>
